/* XPM */
static char * camera_xpm[] = {
"24 24 164 2",
"  	c None",
". 	c #888A85",
"+ 	c #F3F3F2",
"@ 	c #D8D8D8",
"# 	c #ECECEC",
"$ 	c #F5F5F5",
"% 	c #F6F6F5",
"& 	c #F6F6F6",
"* 	c #F9F9F9",
"= 	c #FFFFFF",
"- 	c #B7B8B5",
"; 	c #DBDCDB",
"> 	c #DFE0DF",
", 	c #F1F1F1",
"' 	c #ECEDEC",
") 	c #F3F3F3",
"! 	c #C6C7C5",
"~ 	c #B0B2AF",
"{ 	c #EFEFEF",
"] 	c #F5F5F4",
"^ 	c #CFCFCF",
"/ 	c #D1D1D1",
"( 	c #CACBCA",
"_ 	c #E1E2E1",
": 	c #DEDEDE",
"< 	c #D4D4D4",
"[ 	c #E0E1E0",
"} 	c #A4A5A3",
"| 	c #B2B3B2",
"1 	c #9EA09C",
"2 	c #6A6D6A",
"3 	c #444849",
"4 	c #C5C7C4",
"5 	c #E3E4E1",
"6 	c #E1E1DF",
"7 	c #CDCDCD",
"8 	c #F0F0F0",
"9 	c #D9D9D9",
"0 	c #DBDBDA",
"a 	c #A9ABA7",
"b 	c #C1C1BF",
"c 	c #BEBEBC",
"d 	c #9D9E9B",
"e 	c #787B76",
"f 	c #848582",
"g 	c #919290",
"h 	c #A1A3A1",
"i 	c #9E9F9E",
"j 	c #828585",
"k 	c #D3D5D2",
"l 	c #CDCFC9",
"m 	c #D1D3CE",
"n 	c #D2D2D2",
"o 	c #D3D3D2",
"p 	c #DCDDDB",
"q 	c #B6B6B3",
"r 	c #A0A19D",
"s 	c #878985",
"t 	c #929291",
"u 	c #E7E7E5",
"v 	c #D3D4D0",
"w 	c #D8D8D7",
"x 	c #CACAC7",
"y 	c #B6B9B2",
"z 	c #DBDCD8",
"A 	c #E8E9E6",
"B 	c #C7C8C4",
"C 	c #929391",
"D 	c #E4E5E4",
"E 	c #D7D9D6",
"F 	c #D0D0D0",
"G 	c #D7D7D7",
"H 	c #E1E1E0",
"I 	c #CED1CC",
"J 	c #C7C7C6",
"K 	c #C6C8C5",
"L 	c #D8DAD5",
"M 	c #D3D6D0",
"N 	c #929392",
"O 	c #E9EAE8",
"P 	c #CFD0CF",
"Q 	c #888E90",
"R 	c #687478",
"S 	c #697375",
"T 	c #B2B4B3",
"U 	c #CECECE",
"V 	c #CCCCC9",
"W 	c #D5D7D2",
"X 	c #DADAD8",
"Y 	c #E3E4E2",
"Z 	c #868988",
"` 	c #0E1D32",
" .	c #515151",
"..	c #2F3C4E",
"+.	c #343739",
"@.	c #CBCCCA",
"#.	c #C8CAC3",
"$.	c #777975",
"%.	c #DBDDDA",
"&.	c #C0C2BF",
"*.	c #6E7071",
"=.	c #091527",
"-.	c #A49518",
";.	c #475870",
">.	c #393B3C",
",.	c #CBCBCB",
"'.	c #CECFCD",
").	c #CCCEC8",
"!.	c #DADBDA",
"~.	c #767974",
"{.	c #91928F",
"].	c #D3D5D1",
"^.	c #C7C9C7",
"/.	c #ABACAB",
"(.	c #484C4D",
"_.	c #5F676C",
":.	c #676C6F",
"<.	c #707373",
"[.	c #CDCDCC",
"}.	c #E0E0DE",
"|.	c #D7D8D4",
"1.	c #8F908E",
"2.	c #CCCECA",
"3.	c #D8D9D6",
"4.	c #C5C5C5",
"5.	c #B6B7B7",
"6.	c #9AA0A2",
"7.	c #9EA1A1",
"8.	c #C1C3C0",
"9.	c #E7E7E6",
"0.	c #D1D2CF",
"a.	c #ACAEAA",
"b.	c #80827E",
"c.	c #9A9C99",
"d.	c #ACADAB",
"e.	c #DBDCD9",
"f.	c #D5D6D2",
"g.	c #DADCD8",
"h.	c #D5D6D5",
"i.	c #D9DBD8",
"j.	c #ECECEB",
"k.	c #EFF0EF",
"l.	c #CDCECD",
"m.	c #DDDDDD",
"n.	c #CCCCCB",
"o.	c #BCBCBA",
"p.	c #9B9C99",
"q.	c #DEDFDD",
"r.	c #C8C9C7",
"s.	c #DADAD9",
"t.	c #DCDCDB",
"u.	c #E2E2E0",
"v.	c #E3E3E2",
"w.	c #E3E3E3",
"x.	c #E2E3E2",
"y.	c #DADADA",
"z.	c #D1D2D1",
"A.	c #656763",
"B.	c #CCCCCA",
"C.	c #D5D6D3",
"D.	c #C9CBC7",
"E.	c #6E706C",
"F.	c #5F615D",
"G.	c #595A57",
"                                                ",
"                                                ",
"                                                ",
"                                                ",
"      . . . . . . . . . . . . . . . . . .       ",
"    . + + @ # $ $ $ % & * = - = - = - $ ; .     ",
"    . > . , . ' ) ) ) ! ~ { $ ] @ ^ ^ / ( .     ",
"    . _ : . < [ } | 1 2 3 4 5 6 7 8 8 9 0 .     ",
"    . a b c d e f g h i j k l m @ n / o p .     ",
"    . a q r s e f t : u v 9 w x y z A B w .     ",
"    . a q r s e f C D E F G H I J K L M w .     ",
"    . a q r s e f N O J P Q R S T U V W X .     ",
"    . a q r s e f N Y J Z `  ...+.7 @.#.; .     ",
"    . a q r s $.f t %.&.*.=.-.;.>.,.'.).!..     ",
"    . a q r s ~.f {.].^./.(._.:.<.[.}.|.!..     ",
"    . a q r s ~.f 1.2.3.4.5.6.7.8.9.] 0.0 .     ",
"    . a.q r s b.c.d.e.f.g.h.w i.j.& k.l.m..     ",
"    . n.o.r p.q.r.s.X t.}.[ u.v.w.x.0 y.z..     ",
"    A.. B.C.D.. . . . . . . . . . . . . . E.    ",
"      F.. . . G.                                ",
"                                                ",
"                                                ",
"                                                ",
"                                                "};
