/* XPM */
static char * Camera1_xpm[] = {
"32 29 560 2",
"  	c None",
". 	c #6B6D6C",
"+ 	c #868887",
"@ 	c #8C8E8D",
"# 	c #7B7D7C",
"$ 	c #646666",
"% 	c #515353",
"& 	c #4F5151",
"* 	c #4B4D4D",
"= 	c #4F5051",
"- 	c #464747",
"; 	c #3C3E3E",
"> 	c #4D4E4E",
", 	c #565758",
"' 	c #6F7071",
") 	c #AFB3B6",
"! 	c #878B8E",
"~ 	c #7F8385",
"{ 	c #989B9E",
"] 	c #76777B",
"^ 	c #58595D",
"/ 	c #46474B",
"( 	c #5A5B5F",
"_ 	c #55565A",
": 	c #3F4044",
"< 	c #444549",
"[ 	c #3E3F42",
"} 	c #2A2B2E",
"| 	c #2C2D31",
"1 	c #6C6F72",
"2 	c #888888",
"3 	c #676767",
"4 	c #808080",
"5 	c #5F6265",
"6 	c #7C8185",
"7 	c #A1A5A9",
"8 	c #7E8387",
"9 	c #676A6E",
"0 	c #4E4F53",
"a 	c #4E4F54",
"b 	c #525358",
"c 	c #5B5C61",
"d 	c #5E5F64",
"e 	c #5D5E63",
"f 	c #57585D",
"g 	c #515256",
"h 	c #47484D",
"i 	c #2B2C31",
"j 	c #26272C",
"k 	c #232429",
"l 	c #707478",
"m 	c #797E82",
"n 	c #92979B",
"o 	c #666B6F",
"p 	c #8A8C8F",
"q 	c #5E5D62",
"r 	c #535358",
"s 	c #4F5054",
"t 	c #6F7074",
"u 	c #616266",
"v 	c #545558",
"w 	c #505153",
"x 	c #A4A5A7",
"y 	c #828386",
"z 	c #646568",
"A 	c #68696B",
"B 	c #68696C",
"C 	c #696B6D",
"D 	c #66676B",
"E 	c #636469",
"F 	c #313237",
"G 	c #28292E",
"H 	c #3F4248",
"I 	c #8E9399",
"J 	c #969DA2",
"K 	c #868F94",
"L 	c #828688",
"M 	c #47464B",
"N 	c #333237",
"O 	c #87888D",
"P 	c #6B6C71",
"Q 	c #494A4F",
"R 	c #747478",
"S 	c #CACACC",
"T 	c #D1D1D3",
"U 	c #89898B",
"V 	c #828286",
"W 	c #9999A0",
"X 	c #8F8F95",
"Y 	c #86868C",
"Z 	c #7F7F86",
"` 	c #7A7A83",
" .	c #72727B",
"..	c #5C5C66",
"+.	c #707079",
"@.	c #35363B",
"#.	c #3D3E43",
"$.	c #5A5C61",
"%.	c #7C7F84",
"&.	c #63696D",
"*.	c #8B9497",
"=.	c #363A3B",
"-.	c #656565",
";.	c #7B7B7C",
">.	c #5C5B5F",
",.	c #6A696F",
"'.	c #7F8085",
").	c #797A7F",
"!.	c #3F4045",
"~.	c #16171C",
"{.	c #6A6A6E",
"].	c #CCCCCE",
"^.	c #D6D6D8",
"/.	c #777779",
"(.	c #727277",
"_.	c #909099",
":.	c #9797A0",
"<.	c #85868F",
"[.	c #94949D",
"}.	c #878792",
"|.	c #80808C",
"1.	c #4A4A55",
"2.	c #9A9AA5",
"3.	c #3D3E44",
"4.	c #34353A",
"5.	c #48494E",
"6.	c #4B4B50",
"7.	c #44454A",
"8.	c #505558",
"9.	c #585F62",
"0.	c #2C2E30",
"a.	c #474747",
"b.	c #4A4A4B",
"c.	c #807F84",
"d.	c #A2A1A7",
"e.	c #A8A9AD",
"f.	c #55565B",
"g.	c #14151A",
"h.	c #17181D",
"i.	c #5C5C5F",
"j.	c #AAAAAC",
"k.	c #B7B7B9",
"l.	c #4F4F51",
"m.	c #27282A",
"n.	c #2D2E32",
"o.	c #333538",
"p.	c #38393D",
"q.	c #3E3F43",
"r.	c #414248",
"s.	c #44444B",
"t.	c #24252B",
"u.	c #595960",
"v.	c #38393E",
"w.	c #838489",
"x.	c #4C4B4F",
"y.	c #3A3A3D",
"z.	c #3F4143",
"A.	c #878C8D",
"B.	c #454545",
"C.	c #5D5D5F",
"D.	c #707072",
"E.	c #BAB9BC",
"F.	c #9B9B9E",
"G.	c #5D5D61",
"H.	c #252528",
"I.	c #1B1B1F",
"J.	c #28282C",
"K.	c #48484C",
"L.	c #6B6B6F",
"M.	c #7A7B7F",
"N.	c #4D4E52",
"O.	c #343539",
"P.	c #303135",
"Q.	c #35373A",
"R.	c #2D2E31",
"S.	c #1A1B1E",
"T.	c #0E0F12",
"U.	c #0B0C0F",
"V.	c #08090C",
"W.	c #131417",
"X.	c #3A3B3F",
"Y.	c #434447",
"Z.	c #6E6F72",
"`.	c #55575C",
" +	c #323539",
".+	c #3A3D3F",
"++	c #828587",
"@+	c #444545",
"#+	c #636363",
"$+	c #A9A9A9",
"%+	c #969698",
"&+	c #7D7D7F",
"*+	c #505052",
"=+	c #313133",
"-+	c #242426",
";+	c #1C1C1E",
">+	c #36373A",
",+	c #58595E",
"'+	c #65666B",
")+	c #4D4E53",
"!+	c #4F5055",
"~+	c #303136",
"{+	c #1F2025",
"]+	c #131416",
"^+	c #17181A",
"/+	c #1A1B1D",
"(+	c #161719",
"_+	c #353638",
":+	c #3A3B3D",
"<+	c #555658",
"[+	c #797C7E",
"}+	c #432C28",
"|+	c #553430",
"1+	c #6B686C",
"2+	c #3F4548",
"3+	c #626262",
"4+	c #818183",
"5+	c #68686A",
"6+	c #646466",
"7+	c #626264",
"8+	c #4A4A4C",
"9+	c #1E1E20",
"0+	c #161618",
"a+	c #313236",
"b+	c #45464B",
"c+	c #4C4D52",
"d+	c #56575C",
"e+	c #3B3C41",
"f+	c #343537",
"g+	c #232426",
"h+	c #151618",
"i+	c #121315",
"j+	c #4E4F51",
"k+	c #494A4C",
"l+	c #818282",
"m+	c #663B31",
"n+	c #6C3328",
"o+	c #554E54",
"p+	c #343E44",
"q+	c #3D3D3D",
"r+	c #727274",
"s+	c #636365",
"t+	c #565658",
"u+	c #3E3E40",
"v+	c #141416",
"w+	c #353639",
"x+	c #4A4B50",
"y+	c #404146",
"z+	c #454648",
"A+	c #434446",
"B+	c #242527",
"C+	c #1C1D1F",
"D+	c #0E0F11",
"E+	c #38393B",
"F+	c #626367",
"G+	c #4A403B",
"H+	c #281A13",
"I+	c #434346",
"J+	c #3B3E42",
"K+	c #373737",
"L+	c #7F8082",
"M+	c #7B7C7E",
"N+	c #747476",
"O+	c #58585A",
"P+	c #212123",
"Q+	c #454649",
"R+	c #424347",
"S+	c #434448",
"T+	c #434449",
"U+	c #414247",
"V+	c #3C3D41",
"W+	c #393A3E",
"X+	c #35363A",
"Y+	c #2C2D30",
"Z+	c #252628",
"`+	c #222325",
" @	c #18191B",
".@	c #3E3F41",
"+@	c #45464A",
"@@	c #545F5F",
"#@	c #142221",
"$@	c #3F3F41",
"%@	c #323434",
"&@	c #88898B",
"*@	c #898A8C",
"=@	c #858688",
"-@	c #616163",
";@	c #202022",
">@	c #48484A",
",@	c #5C5D5F",
"'@	c #6A6B6D",
")@	c #747577",
"!@	c #757679",
"~@	c #6F7075",
"{@	c #393A3F",
"]@	c #333439",
"^@	c #2A2B2D",
"/@	c #2B2C2E",
"(@	c #1E1F21",
"_@	c #37383A",
":@	c #3D3E40",
"<@	c #2C2D2F",
"[@	c #424345",
"}@	c #3C4143",
"|@	c #2F3435",
"1@	c #7E7F81",
"2@	c #868789",
"3@	c #818284",
"4@	c #535355",
"5@	c #1A1A1C",
"6@	c #171719",
"7@	c #4D4D4F",
"8@	c #8C8C8E",
"9@	c #999A9C",
"0@	c #8B8C8E",
"a@	c #797A7C",
"b@	c #6D6E71",
"c@	c #626368",
"d@	c #3A3B3E",
"e@	c #28292B",
"f@	c #292A2C",
"g@	c #3F4042",
"h@	c #3D4143",
"i@	c #303535",
"j@	c #67686A",
"k@	c #595A5C",
"l@	c #4D4E50",
"m@	c #2E2F31",
"n@	c #19191B",
"o@	c #7F7F81",
"p@	c #6D6E70",
"q@	c #737476",
"r@	c #6C6D6F",
"s@	c #616265",
"t@	c #505156",
"u@	c #3A3B40",
"v@	c #36373C",
"w@	c #3C3D42",
"x@	c #323338",
"y@	c #48494C",
"z@	c #212224",
"A@	c #323335",
"B@	c #404143",
"C@	c #3C4042",
"D@	c #78797A",
"E@	c #767779",
"F@	c #6F7072",
"G@	c #47484A",
"H@	c #2F2F32",
"I@	c #6A696C",
"J@	c #8D918F",
"K@	c #838986",
"L@	c #717675",
"M@	c #6B6E70",
"N@	c #6D6F73",
"O@	c #74767B",
"P@	c #5C5E63",
"Q@	c #35363C",
"R@	c #2A2B30",
"S@	c #3A3B3C",
"T@	c #1E1C1B",
"U@	c #393431",
"V@	c #101011",
"W@	c #191A1C",
"X@	c #3C3F42",
"Y@	c #333638",
"Z@	c #767878",
"`@	c #76777A",
" #	c #424546",
".#	c #4C4C50",
"+#	c #49494B",
"@#	c #9AA29A",
"##	c #748C75",
"$#	c #647F67",
"%#	c #4F6153",
"&#	c #3C4541",
"*#	c #3F4445",
"=#	c #6F7275",
"-#	c #7B7B82",
";#	c #323239",
">#	c #2F3032",
",#	c #4F5052",
"'#	c #36383A",
")#	c #2F3337",
"!#	c #363636",
"~#	c #211B15",
"{#	c #32261E",
"]#	c #121110",
"^#	c #313234",
"/#	c #3B3D41",
"(#	c #37383D",
"_#	c #737575",
":#	c #747579",
"<#	c #444347",
"[#	c #404042",
"}#	c #818B83",
"|#	c #6C876E",
"1#	c #6D936C",
"2#	c #547954",
"3#	c #365136",
"4#	c #3A4B3C",
"5#	c #313B34",
"6#	c #2C3130",
"7#	c #2B2E31",
"8#	c #5F5E64",
"9#	c #6C6B71",
"0#	c #38393C",
"a#	c #757678",
"b#	c #363739",
"c#	c #303234",
"d#	c #2D2E30",
"e#	c #1B1E20",
"f#	c #131618",
"g#	c #18191C",
"h#	c #303133",
"i#	c #333539",
"j#	c #717373",
"k#	c #737478",
"l#	c #696A6E",
"m#	c #4D4C4F",
"n#	c #303033",
"o#	c #818C86",
"p#	c #425E48",
"q#	c #4C6D4E",
"r#	c #365334",
"s#	c #4C694B",
"t#	c #496448",
"u#	c #445744",
"v#	c #3E4440",
"w#	c #292C2C",
"x#	c #2B2B2E",
"y#	c #6F6E72",
"z#	c #565759",
"A#	c #646567",
"B#	c #282A2D",
"C#	c #171B1F",
"D#	c #151A1E",
"E#	c #17191C",
"F#	c #262729",
"G#	c #393A3C",
"H#	c #383A3E",
"I#	c #414246",
"J#	c #717273",
"K#	c #717275",
"L#	c #67686C",
"M#	c #4D4E4F",
"N#	c #38383C",
"O#	c #616769",
"P#	c #34443D",
"Q#	c #36453A",
"R#	c #293728",
"S#	c #384E36",
"T#	c #4C6B49",
"U#	c #657C63",
"V#	c #414742",
"W#	c #2E322F",
"X#	c #202122",
"Y#	c #3F3F42",
"Z#	c #292B2E",
"`#	c #272829",
" $	c #1C1C1C",
".$	c #252423",
"+$	c #19191A",
"@$	c #2B2C2D",
"#$	c #303235",
"$$	c #5E5F63",
"%$	c #7D7D7D",
"&$	c #6D6D6D",
"*$	c #646464",
"=$	c #474849",
"-$	c #313436",
";$	c #535959",
">$	c #2A3332",
",$	c #2A352E",
"'$	c #202C20",
")$	c #233023",
"!$	c #394538",
"~$	c #313A32",
"{$	c #303434",
"]$	c #232728",
"^$	c #212425",
"/$	c #2C2F30",
"($	c #191919",
"_$	c #1E1E1E",
":$	c #252525",
"<$	c #2E2E2E",
"[$	c #404040",
"}$	c #484848",
"|$	c #565A5B",
"1$	c #252C2C",
"2$	c #242D2B",
"3$	c #1E2824",
"4$	c #19231F",
"5$	c #212B28",
"6$	c #1C2422",
"7$	c #212526",
"8$	c #222627",
"9$	c #2B2F30",
"0$	c #323637",
"a$	c #333436",
"b$	c #1C1C1D",
"c$	c #2D2D2D",
"d$	c #2F2F2F",
"e$	c #4B4B4B",
"f$	c #A7A5A8",
"g$	c #28272A",
"h$	c #272A2B",
"i$	c #242A2A",
"j$	c #252B2B",
"k$	c #1D2322",
"l$	c #1C2222",
"m$	c #24292A",
"n$	c #242829",
"o$	c #2E3233",
"p$	c #383C3D",
"q$	c #444849",
"r$	c #58595B",
"s$	c #292929",
"t$	c #575558",
"u$	c #39393B",
"v$	c #252927",
"w$	c #272C28",
"x$	c #2D322E",
"y$	c #292E2A",
"z$	c #2A2E2D",
"A$	c #3F4344",
"B$	c #3B3F40",
"C$	c #696D6E",
"D$	c #525355",
"E$	c #7D7E80",
"F$	c #2B2B2B",
"G$	c #494949",
"H$	c #424547",
"I$	c #282D31",
"J$	c #313639",
"K$	c #363B3E",
"L$	c #383C3F",
"M$	c #424348",
"N$	c #737479",
"O$	c #2A2A2A",
"P$	c #585959",
"Q$	c #262626",
"R$	c #404345",
"S$	c #4E5255",
"T$	c #393D41",
"U$	c #414548",
"V$	c #55585C",
"W$	c #6B6C70",
"X$	c #3A3A3A",
"Y$	c #3E3E3F",
"Z$	c #717374",
"`$	c #545557",
" %	c #515254",
".%	c #616264",
"+%	c #4B4C4E",
"@%	c #4C4C4C",
"#%	c #545454",
"$%	c #515151",
"%%	c #646665",
"&%	c #8E908F",
"                                    . + @ #                     ",
"                              $ % & * = - ; > , '               ",
"                  ) ! ~ { ] ^ / ^ ( ( _ : < [ } | 1             ",
"          2 3 4 5 6 7 8 9 0 a b c d e f g h i j k l m n o p     ",
"      q r s t u v w x y v z A B C D E d ^ F i G G H I J K L     ",
"    M N c O P Q R S T U V W X Y Z `  ...+.a @.#.e $.%.&.*.=.-.  ",
"  ;.>.,.'.).!.~.{.].^./.(._.:.<.[.}.|.1.2.3.4.5.O 6.7.8.9.0.a.  ",
"  b.c.d.e.f.g.h.i.j.k.l.m.n.o.p.q.r.s.t.u.!.v.h w.x.y.z.A.; B.  ",
"C.D.E.F.G.H.I.J.K.L.M.N.O.P.Q.R.S.T.U.V.V.W.X.Y.Z.`. +.+++@+#+$+",
"D./.%+&+*+=+-+;+>+,+'+)+b !+h ~+{+]+^+/+(+_+:+:+<+[+}+|+1+2+3+  ",
"4+5+6+7+8+9+0+9+a+a f.b+!+a c+d+e+f+g+(+h+i+h+j+k+l+m+n+o+p+q+  ",
"  r+s+t+u+9+v+9+w+!+x+b+y+!.y+!.c+z+A+B+g+C+D+E+E+F+G+H+I+J+K+  ",
"  L+M+N+O+P+v+9+y.s Q+R+S+T+U+U+V+W+X.X+Y+Z+`+ @.@+@@@#@.+$@%@  ",
"  &@*@=@-@;@v+9+>@,@'@)@!@~@c h #.{@4.]@a+^@/@(@_@:@<@[@E+}@|@  ",
"  1@2@3@4@5@6@7@8@9@0@a@b@'+c@f.T+v.4.]@]@d@e@f@e@f@f+g@k+h@i@  ",
"  j@k@l@m@n@>@o@D.p@q@r@s@t@u@v@w@!.@.4.x@y@m@z@`+]+f+A@B@C@|@  ",
"  D@E@F@G@H@I@-@J@K@L@M@N@O@P@Q@R@p.N.X+X+o.S@T@U@V@W@f@f+X@Y@  ",
"  Z@`@~@ #.#+#@###$#%#&#*#*#=#-#;#>#,@,#'#)#!#~#{#]#W@^@^#/#(#  ",
"  _#:#P <#[#}#|#1#2#3#4#5#6#7#8#9#0#.@a#b#c#d#e#f#g#m.:@h#i#x@  ",
"  j#k#l#m#n#o#p#q#r#s#t#u#v#w#x#y#z#f+A#.@<@B#C#D#E#F#G#<@H#I#  ",
"  J#K#L#M#N#O#P#Q#R#S#T#U#V#W#X#Y#M+_+:@B@Z#`# $.$+$9+m.@$#$$$  ",
"  %$&$*$=$-$;$>$,$'$)$!$~${$]$^$/$M+_+>#b#f@e@m.F#($_$:$<$[$    ",
"    -.}$$@g+|$1$2$3$4$5$6$7$8$9$0$E@a$Z+>#h#^@^@B+b$c$d$e$      ",
"        f$g$,@h$i$j$k$l$m$n$o$p$q$r$m@`+b#^#^@d#`+s$            ",
"          t$u$l@v$w$x$y$z$0$A$B$C$D$m@m.E$                      ",
"            F$G$H$I$J$K$L$M$!+N$( e$O$P$                        ",
"              Q$R$S$T$U$V$D W$^ v X$e$                          ",
"                Y$^@G@F@Z$`$ %.%+%*$                            ",
"                    @%#%$%%%&%                                  "};
