/* XPM */
static char * camera_xpm[] = {
"24 24 371 2",
"  	c None",
". 	c #686866",
"+ 	c #585755",
"@ 	c #494949",
"# 	c #5B5C5E",
"$ 	c #93979A",
"% 	c #B5B9BD",
"& 	c #AAAFB3",
"* 	c #A2A6A9",
"= 	c #9C9FA2",
"- 	c #8B8D91",
"; 	c #5B5B5D",
"> 	c #3E3C3B",
", 	c #6A6869",
"' 	c #3E3C3A",
") 	c #37352F",
"! 	c #636466",
"~ 	c #5A5A5C",
"{ 	c #5C5E5D",
"] 	c #6F7172",
"^ 	c #848789",
"/ 	c #9C9EA1",
"( 	c #9EA1A5",
"_ 	c #6E7073",
": 	c #59595B",
"< 	c #555557",
"[ 	c #535355",
"} 	c #454547",
"| 	c #2C2B2B",
"1 	c #2A2825",
"2 	c #36322E",
"3 	c #737373",
"4 	c #4A4A4D",
"5 	c #3C3C3D",
"6 	c #464849",
"7 	c #4C4C4C",
"8 	c #4A4A4B",
"9 	c #525253",
"0 	c #5F5F61",
"a 	c #494A4C",
"b 	c #454545",
"c 	c #3F3F40",
"d 	c #3B3B3C",
"e 	c #2B2A29",
"f 	c #25201D",
"g 	c #261F1C",
"h 	c #2C2420",
"i 	c #363736",
"j 	c #373736",
"k 	c #363636",
"l 	c #2D2E2C",
"m 	c #2F302E",
"n 	c #4F4F4F",
"o 	c #404041",
"p 	c #3B3B3B",
"q 	c #383736",
"r 	c #353333",
"s 	c #2A2726",
"t 	c #27231E",
"u 	c #27221E",
"v 	c #1F1A17",
"w 	c #272623",
"x 	c #4F524E",
"y 	c #656566",
"z 	c #3C3C3B",
"A 	c #4A4B4B",
"B 	c #343330",
"C 	c #282723",
"D 	c #30312E",
"E 	c #2D2C29",
"F 	c #696866",
"G 	c #6E6D6C",
"H 	c #4B4B4A",
"I 	c #32312D",
"J 	c #2B2722",
"K 	c #2B2420",
"L 	c #24201B",
"M 	c #211F1B",
"N 	c #232320",
"O 	c #2A2B29",
"P 	c #2E2A29",
"Q 	c #3E3A36",
"R 	c #6C6C6D",
"S 	c #4E4E4D",
"T 	c #3C3B39",
"U 	c #2F302B",
"V 	c #2F2E2B",
"W 	c #373735",
"X 	c #373734",
"Y 	c #41403D",
"Z 	c #403F3B",
"` 	c #5E5C57",
" .	c #6E6B69",
"..	c #2C2721",
"+.	c #312A25",
"@.	c #2B261F",
"#.	c #2E2C29",
"$.	c #24211E",
"%.	c #3C3B3B",
"&.	c #2B2C2C",
"*.	c #252220",
"=.	c #231E19",
"-.	c #6A6A6C",
";.	c #505050",
">.	c #3E3E3E",
",.	c #2B2B27",
"'.	c #2B2D28",
").	c #333331",
"!.	c #40403D",
"~.	c #363532",
"{.	c #24231E",
"].	c #2D2B27",
"^.	c #1E1A15",
"/.	c #1C1913",
"(.	c #262420",
"_.	c #42403F",
":.	c #302F2E",
"<.	c #272321",
"[.	c #363535",
"}.	c #5B5C5F",
"|.	c #3F3D3E",
"1.	c #231C17",
"2.	c #312C25",
"3.	c #68686A",
"4.	c #4D4E4D",
"5.	c #404241",
"6.	c #272823",
"7.	c #2A2B27",
"8.	c #333633",
"9.	c #414543",
"0.	c #3C3F3D",
"a.	c #21221E",
"b.	c #191914",
"c.	c #2D2D2A",
"d.	c #2E2E2C",
"e.	c #2D2B26",
"f.	c #25211E",
"g.	c #36332F",
"h.	c #5C5856",
"i.	c #312F2C",
"j.	c #252320",
"k.	c #2E2E2E",
"l.	c #6B6B6D",
"m.	c #4F5050",
"n.	c #3E403F",
"o.	c #262722",
"p.	c #2D2F2A",
"q.	c #595B5A",
"r.	c #85888A",
"s.	c #464643",
"t.	c #282A25",
"u.	c #22231E",
"v.	c #282924",
"w.	c #494B4A",
"x.	c #272824",
"y.	c #272620",
"z.	c #2B2824",
"A.	c #34322D",
"B.	c #66615E",
"C.	c #383532",
"D.	c #373533",
"E.	c #3C3C3C",
"F.	c #6A6B6D",
"G.	c #4F5052",
"H.	c #434544",
"I.	c #444646",
"J.	c #525353",
"K.	c #5A5C5C",
"L.	c #4F5251",
"M.	c #464846",
"N.	c #393938",
"O.	c #24231D",
"P.	c #2D2E2A",
"Q.	c #23241F",
"R.	c #272520",
"S.	c #27241E",
"T.	c #2C2A25",
"U.	c #2C2925",
"V.	c #2D2C28",
"W.	c #3B3B3A",
"X.	c #3B3B39",
"Y.	c #3D3E3D",
"Z.	c #585654",
"`.	c #78797B",
" +	c #67696A",
".+	c #5C5D5F",
"++	c #4A4B4A",
"@+	c #3F4140",
"#+	c #3A3C3B",
"$+	c #353634",
"%+	c #28271F",
"&+	c #1F1B11",
"*+	c #201E15",
"=+	c #1C170E",
"-+	c #2A2722",
";+	c #26241E",
">+	c #331F17",
",+	c #2E2D27",
"'+	c #2C2B27",
")+	c #2A2A26",
"!+	c #404040",
"~+	c #414041",
"{+	c #595856",
"]+	c #565350",
"^+	c #5F5A5A",
"/+	c #64595B",
"(+	c #6D5F61",
"_+	c #715D5F",
":+	c #4A4A47",
"<+	c #363835",
"[+	c #333432",
"}+	c #323230",
"|+	c #2C2922",
"1+	c #27251D",
"2+	c #251C10",
"3+	c #282217",
"4+	c #282722",
"5+	c #262019",
"6+	c #2C2D28",
"7+	c #3C3D3E",
"8+	c #414243",
"9+	c #3E3E3F",
"0+	c #4D4C4B",
"a+	c #434240",
"b+	c #4D4C4A",
"c+	c #565352",
"d+	c #3D3A37",
"e+	c #28201A",
"f+	c #4C2725",
"g+	c #3F2F2B",
"h+	c #32312C",
"i+	c #343532",
"j+	c #2F2F2C",
"k+	c #272218",
"l+	c #26241B",
"m+	c #2F2B24",
"n+	c #2D2B25",
"o+	c #32322E",
"p+	c #363635",
"q+	c #3D3E3F",
"r+	c #424345",
"s+	c #454648",
"t+	c #3F3F41",
"u+	c #424140",
"v+	c #474644",
"w+	c #36322F",
"x+	c #292622",
"y+	c #33312E",
"z+	c #4C4A46",
"A+	c #302E28",
"B+	c #5B3C3C",
"C+	c #3E2C27",
"D+	c #2E2D26",
"E+	c #272116",
"F+	c #3B362E",
"G+	c #3F3F3C",
"H+	c #3B3C39",
"I+	c #3B3C3B",
"J+	c #3E4040",
"K+	c #434446",
"L+	c #454749",
"M+	c #525254",
"N+	c #4C4C4D",
"O+	c #434343",
"P+	c #3F3D3A",
"Q+	c #1E1A14",
"R+	c #19150D",
"S+	c #18160D",
"T+	c #22261C",
"U+	c #444541",
"V+	c #3B3A37",
"W+	c #512926",
"X+	c #352920",
"Y+	c #33332D",
"Z+	c #31312C",
"`+	c #60605F",
" @	c #4E4F4F",
".@	c #363735",
"+@	c #4C4E4E",
"@@	c #474A4B",
"#@	c #4D5051",
"$@	c #444748",
"%@	c #454748",
"&@	c #5E5E5D",
"*@	c #424242",
"=@	c #444444",
"-@	c #383733",
";@	c #30332A",
">@	c #272F22",
",@	c #2B3E2F",
"'@	c #2F4534",
")@	c #303F34",
"!@	c #44433E",
"~@	c #251E13",
"{@	c #4B251D",
"]@	c #2E2B23",
"^@	c #353632",
"/@	c #494A49",
"(@	c #737777",
"_@	c #454642",
":@	c #464844",
"<@	c #4D5153",
"[@	c #505456",
"}@	c #575B5D",
"|@	c #484848",
"1@	c #434344",
"2@	c #373634",
"3@	c #373A32",
"4@	c #2B3126",
"5@	c #31493B",
"6@	c #465A47",
"7@	c #354A3C",
"8@	c #35372F",
"9@	c #3A3831",
"0@	c #3F1F17",
"a@	c #3C352D",
"b@	c #3A3A38",
"c@	c #5D5E5D",
"d@	c #626462",
"e@	c #464648",
"f@	c #424241",
"g@	c #383A34",
"h@	c #2F3328",
"i@	c #333E33",
"j@	c #334B3F",
"k@	c #2B4336",
"l@	c #282B23",
"m@	c #4A4946",
"n@	c #31261D",
"o@	c #665455",
"p@	c #3F3F3E",
"q@	c #555552",
"r@	c #515254",
"s@	c #48494B",
"t@	c #3B3D37",
"u@	c #2F3429",
"v@	c #2B3024",
"w@	c #272E23",
"x@	c #282823",
"y@	c #4C4949",
"z@	c #42403E",
"A@	c #736465",
"B@	c #4C4947",
"C@	c #4F4F51",
"D@	c #4A4B4D",
"E@	c #3F3F3F",
"F@	c #373934",
"G@	c #383B36",
"H@	c #323430",
"I@	c #3A3737",
"J@	c #4E4D4D",
"K@	c #4D4B4B",
"L@	c #706767",
"M@	c #4D4E51",
"N@	c #444547",
"O@	c #464647",
"P@	c #3C3B3A",
"Q@	c #403E3F",
"R@	c #484849",
"S@	c #595859",
"T@	c #625D5B",
"U@	c #4D4E50",
"V@	c #414244",
"W@	c #424244",
"X@	c #434345",
"Y@	c #4B484B",
"Z@	c #504F50",
"`@	c #504B47",
" #	c #58585A",
".#	c #4E4D4E",
"+#	c #5A5555",
"          .                   +                 ",
"          @ # $ % & * = -   ; > , ' )           ",
"          ! ~ { ] ^ / ( _ : < [ } | 1 2         ",
"        3 4 5 6 7 8 9 0 a b c d e f g h         ",
"        @ i j k l m n o p q r s t u v w 7 x     ",
"      y z A B C D E F G H B I J K L M N O P Q   ",
"      R S T U V W X Y Z `  ...+.@.#.$.%.&.*.=.  ",
"      -.;.>.,.'.).!.~.{.].^./.(._.:.<.[.}.|.1.2.",
"      3.4.5.6.7.8.9.0.O a.b.7.c.d.e.f.g.h.i.j.k.",
"      l.m.n.o.p.q.r.s.7.t.u.v.w.x.y.z.A.B.C.D.E.",
"      F.G.H.I.J.K.L.M.N.O.P.Q.R.S.T.U.V.W.X.Y.Z.",
"      `. +.+++@+#+$+%+&+*+=+-+;+>+,+'+)+p !+~+{+",
"    ]+^+/+(+_+:+<+[+}+|+1+2+3+4+5+R.6+i.7+8+9+  ",
"  0+a+b+c+d+e+f+g+h+i+j+k+l+m+n+o+j+p+q+r+s+t+  ",
"  u+v+w+x+y+z+A+B+C+A.U D+E+F+G+H+I+J+q+K+L+M+  ",
"N+O+P+Q+R+S+T+U+V+W+X+Y+Z+) `+ @.@+@@@#@$@%@&@  ",
"*@=@-@;@>@,@'@)@!@~@{@]@^@/@(@_@:@  <@[@}@      ",
"|@1@2@3@4@5@6@7@8@9@0@a@b@c@d@                  ",
"  e@f@g@h@i@j@k@l@m@n@o@p@q@                    ",
"  r@s@!+t@u@v@w@x@y@z@A@B@                      ",
"    C@D@E@F@G@H@I@J@K@L@                        ",
"      M@N@O@P@Q@R@: S@T@                        ",
"        U@V@W@X@Y@Z@`@                          ",
"             #.#+#                              "};
