/* XPM */
static char * camera_xpm[] = {
"24 24 152 2",
"  	c None",
". 	c #8C8C8C",
"+ 	c #ABABAB",
"@ 	c #8B8B8B",
"# 	c #929292",
"$ 	c #8F8F8F",
"% 	c #727272",
"& 	c #737373",
"* 	c #BCBCBC",
"= 	c #FCFCFC",
"- 	c #F2F2F2",
"; 	c #E5E5E5",
"> 	c #DADADA",
", 	c #D7D7D7",
"' 	c #7E7E7E",
") 	c #C6C6C6",
"! 	c #E4E4E4",
"~ 	c #DEDEDE",
"{ 	c #DFDFDF",
"] 	c #A7A7A7",
"^ 	c #616161",
"/ 	c #9D9D9D",
"( 	c #969696",
"_ 	c #828282",
": 	c #787878",
"< 	c #5D5D5D",
"[ 	c #878787",
"} 	c #D0D0D0",
"| 	c #CFCFCF",
"1 	c #CBCBCB",
"2 	c #C8C8C8",
"3 	c #CECECE",
"4 	c #D5D5D5",
"5 	c #CDCDCD",
"6 	c #CACACA",
"7 	c #BBBBBB",
"8 	c #A5A5A5",
"9 	c #838383",
"0 	c #7F7F7F",
"a 	c #7D7D7D",
"b 	c #7B7B7B",
"c 	c #414141",
"d 	c #A0A0A0",
"e 	c #989898",
"f 	c #959595",
"g 	c #979797",
"h 	c #9F9F9F",
"i 	c #A6A6A6",
"j 	c #AEAEAE",
"k 	c #B2B2B2",
"l 	c #AFAFAF",
"m 	c #ADADAD",
"n 	c #A3A3A3",
"o 	c #6C6C6C",
"p 	c #6A6A6A",
"q 	c #424242",
"r 	c #9E9E9E",
"s 	c #C2C2C2",
"t 	c #C3C3C3",
"u 	c #F4F4F4",
"v 	c #EFEFEF",
"w 	c #D9D9D9",
"x 	c #D8D8D8",
"y 	c #A9A9A9",
"z 	c #5C5C5C",
"A 	c #9C9C9C",
"B 	c #BFBFBF",
"C 	c #CCCCCC",
"D 	c #EEEEEE",
"E 	c #EAEAEA",
"F 	c #E1E1E1",
"G 	c #A4A4A4",
"H 	c #858585",
"I 	c #545454",
"J 	c #525252",
"K 	c #999999",
"L 	c #BABABA",
"M 	c #D2D2D2",
"N 	c #E3E3E3",
"O 	c #949494",
"P 	c #898989",
"Q 	c #868686",
"R 	c #9B9B9B",
"S 	c #6E6E6E",
"T 	c #606060",
"U 	c #515151",
"V 	c #B7B7B7",
"W 	c #7C7C7C",
"X 	c #818181",
"Y 	c #8E8E8E",
"Z 	c #646464",
"` 	c #707070",
" .	c #939393",
"..	c #B0B0B0",
"+.	c #919191",
"@.	c #7A7A7A",
"#.	c #909090",
"$.	c #8A8A8A",
"%.	c #676767",
"&.	c #6B6B6B",
"*.	c #4F4F4F",
"=.	c #4C4C4C",
"-.	c #5B5B5B",
";.	c #3D3D3D",
">.	c #303030",
",.	c #454545",
"'.	c #777777",
").	c #595959",
"!.	c #555555",
"~.	c #505050",
"{.	c #A2A2A2",
"].	c #888888",
"^.	c #747474",
"/.	c #363636",
"(.	c #2D2D2D",
"_.	c #6F6F6F",
":.	c #797979",
"<.	c #535353",
"[.	c #565656",
"}.	c #4D4D4D",
"|.	c #4B4B4B",
"1.	c #494949",
"2.	c #9A9A9A",
"3.	c #757575",
"4.	c #4A4A4A",
"5.	c #383838",
"6.	c #2E2E2E",
"7.	c #484848",
"8.	c #464646",
"9.	c #404040",
"0.	c #848484",
"a.	c #323232",
"b.	c #474747",
"c.	c #3E3E3E",
"d.	c #353535",
"e.	c #2C2C2C",
"f.	c #3B3B3B",
"g.	c #C0C0C0",
"h.	c #808080",
"i.	c #434343",
"j.	c #343434",
"k.	c #2F2F2F",
"l.	c #272727",
"m.	c #444444",
"n.	c #2B2B2B",
"o.	c #3A3A3A",
"p.	c #3F3F3F",
"q.	c #767676",
"r.	c #585858",
"s.	c #A1A1A1",
"t.	c #8D8D8D",
"u.	c #6D6D6D",
"                                                ",
"                                                ",
"                                                ",
"              . + . @ # $ %                     ",
"            & * = - ; > , '                     ",
"            . ) ! ! ~ ~ { ] %   ^ / ( . _ : <   ",
"[ } | 1 2 2 ) 3 4 5 } 6 ) 7 8 _ 8 9 0 ' a a b c ",
"d | e f g h i j k j j l m m m a n o o o o o p q ",
"r s t u v ! w x l y y y y y y 0 ( < < < < < z q ",
"A B C D E F x ~ k G G G G G G @ H I J J J J J c ",
"K * L 6 M > F N ] O P Q @ g h R S T J J J J U c ",
"( V R R R R R f W X @ Y P ' X e Z ` J J J J U c ",
" ...f f f f +.@.#.$.%.z &.+.@ b ` &.J J J U *.c ",
"#.y #.#.#.#.W Y @.=.-.;.>.,.e [ '.).!.J ~.*.=.c ",
". {.. . . ].' #.=.[ ^.U /.(._.R :.<.[.*.}.|.1.c ",
"P 2.[ [ [ 0 Q 3.4.o ].< 5.6.c k 0 [.*.=.4.7.8.9.",
"H O 0.0.0.a [ S a.;.b.c.d.e.f.g.h.[.|.1.b.,.i.9.",
"_ +.0.0.0.0 _ 0.(.a./.j.k.l.o m b ~.7.8.m.q 9.9.",
"h.Y H 0.0.9 :  .< e.e.n.l.o.t #.S ,.,.i.c p.c.9.",
"q.0.0 a a a '.h.e [ T r.0.t R @.I i.q 9.c.;.;.9.",
"              % ' #.{.l s.t.@.u.9.9.9.9.p.p.9.  ",
"                  & : @.'.%                     ",
"                                                ",
"                                                "};
