/* XPM */
static char * camera_xpm[] = {
"24 24 365 2",
"  	c None",
". 	c #5E5F61",
"+ 	c #646767",
"@ 	c #6F7171",
"# 	c #686A69",
"$ 	c #5F6160",
"% 	c #5B5C5E",
"& 	c #606264",
"* 	c #666869",
"= 	c #5F6161",
"- 	c #515253",
"; 	c #545558",
"> 	c #555659",
", 	c #57585B",
"' 	c #4D4E51",
") 	c #444548",
"! 	c #3B3C3F",
"~ 	c #414245",
"{ 	c #53565A",
"] 	c #66666A",
"^ 	c #6F6F71",
"/ 	c #6C6D6F",
"( 	c #74777A",
"_ 	c #8A8D90",
": 	c #787A7D",
"< 	c #646569",
"[ 	c #5C5C60",
"} 	c #5D5F62",
"| 	c #606165",
"1 	c #5C5D61",
"2 	c #525358",
"3 	c #414246",
"4 	c #313236",
"5 	c #34353A",
"6 	c #515458",
"7 	c #7E8387",
"8 	c #83898D",
"9 	c #787E81",
"0 	c #535256",
"a 	c #56565B",
"b 	c #69696E",
"c 	c #696A6D",
"d 	c #87898B",
"e 	c #9D9FA1",
"f 	c #828386",
"g 	c #78787D",
"h 	c #75767B",
"i 	c #75767C",
"j 	c #727379",
"k 	c #696970",
"l 	c #5F6067",
"m 	c #494A50",
"n 	c #35363B",
"o 	c #3C3D42",
"p 	c #595B5F",
"q 	c #72767B",
"r 	c #787E82",
"s 	c #686D6F",
"t 	c #5E5E61",
"u 	c #65656A",
"v 	c #696A6F",
"w 	c #47484E",
"x 	c #5F6064",
"y 	c #9A9B9D",
"z 	c #ADACAE",
"A 	c #7F7F83",
"B 	c #7C7C81",
"C 	c #7C7D82",
"D 	c #7C7C83",
"E 	c #74747D",
"F 	c #676771",
"G 	c #61626A",
"H 	c #4E4F56",
"I 	c #3D3E44",
"J 	c #4E4F54",
"K 	c #626368",
"L 	c #5C5F63",
"M 	c #646A6D",
"N 	c #585B5D",
"O 	c #767679",
"P 	c #85858A",
"Q 	c #616267",
"R 	c #2A2B31",
"S 	c #4B4C50",
"T 	c #929294",
"U 	c #9B9B9D",
"V 	c #505155",
"W 	c #505257",
"X 	c #55565C",
"Y 	c #53545A",
"Z 	c #4A4A52",
"` 	c #4A4B52",
" .	c #46474D",
"..	c #3F4045",
"+.	c #595A5F",
"@.	c #636469",
"#.	c #46474A",
"$.	c #565A5B",
"%.	c #4F5152",
"&.	c #6B6B6D",
"*.	c #777779",
"=.	c #89898C",
"-.	c #78777B",
";.	c #434346",
">.	c #222326",
",.	c #3B3B3F",
"'.	c #67676C",
").	c #6F6F74",
"!.	c #4D4E52",
"~.	c #404146",
"{.	c #3D3E41",
"].	c #313235",
"^.	c #222327",
"/.	c #1C1D21",
"(.	c #1D1E22",
"_.	c #27282C",
":.	c #363639",
"<.	c #545458",
"[.	c #5F5E61",
"}.	c #4A4547",
"|.	c #575455",
"1.	c #555657",
"2.	c #717373",
"3.	c #717173",
"4.	c #7D7D7F",
"5.	c #626163",
"6.	c #333335",
"7.	c #1E1E21",
"8.	c #303034",
"9.	c #4D4E53",
"0.	c #57585D",
"a.	c #494A4F",
"b.	c #434449",
"c.	c #404145",
"d.	c #303135",
"e.	c #1F2023",
"f.	c #18191B",
"g.	c #141517",
"h.	c #1B1C1F",
"i.	c #2F2F32",
"j.	c #4C4D4F",
"k.	c #5D5859",
"l.	c #574745",
"m.	c #554847",
"n.	c #504F51",
"o.	c #757577",
"p.	c #6A6A6C",
"q.	c #535355",
"r.	c #2E2E30",
"s.	c #1C1C1D",
"t.	c #2B2C2E",
"u.	c #45464A",
"v.	c #4A4B50",
"w.	c #333437",
"x.	c #2A2B2D",
"y.	c #202123",
"z.	c #1D1E20",
"A.	c #28292B",
"B.	c #424345",
"C.	c #585252",
"D.	c #5A4844",
"E.	c #4B3C3A",
"F.	c #444345",
"G.	c #767778",
"H.	c #6F7072",
"I.	c #58585A",
"J.	c #2D2D2F",
"K.	c #1B1B1C",
"L.	c #2D2E30",
"M.	c #47484C",
"N.	c #4C4D51",
"O.	c #48494E",
"P.	c #46474C",
"Q.	c #45464B",
"R.	c #424347",
"S.	c #353639",
"T.	c #2A2B2E",
"U.	c #212224",
"V.	c #353638",
"W.	c #4A494A",
"X.	c #464443",
"Y.	c #393837",
"Z.	c #3B3C3D",
"`.	c #808183",
" +	c #666668",
".+	c #303032",
"++	c #1B1B1D",
"@+	c #3B3B3D",
"#+	c #626264",
"$+	c #67686A",
"%+	c #5E5F64",
"&+	c #54555A",
"*+	c #35363A",
"=+	c #232426",
"-+	c #2E2F31",
";+	c #3B3D3E",
">+	c #3A3C3D",
",+	c #393C3E",
"'+	c #757678",
")+	c #5A5B5D",
"!+	c #333234",
"~+	c #77777A",
"{+	c #767779",
"]+	c #6E6F73",
"^+	c #393A3F",
"/+	c #36373B",
"(+	c #343539",
"_+	c #343537",
":+	c #28282B",
"<+	c #323436",
"[+	c #3B3D3F",
"}+	c #393C3F",
"|+	c #68696B",
"1+	c #4D4E50",
"2+	c #353538",
"3+	c #505052",
"4+	c #727474",
"5+	c #7E8281",
"6+	c #737777",
"7+	c #67696C",
"8+	c #5B5D61",
"9+	c #3A3B40",
"0+	c #38393C",
"a+	c #38393D",
"b+	c #252426",
"c+	c #232324",
"d+	c #292A2C",
"e+	c #38393B",
"f+	c #393B3E",
"g+	c #57585A",
"h+	c #47484B",
"i+	c #757E77",
"j+	c #738276",
"k+	c #606B65",
"l+	c #585D5D",
"m+	c #575A5E",
"n+	c #56585D",
"o+	c #44454B",
"p+	c #3A3B3F",
"q+	c #3E3F42",
"r+	c #37383B",
"s+	c #2B2B2C",
"t+	c #262322",
"u+	c #23201F",
"v+	c #1F2022",
"w+	c #2F3032",
"x+	c #707173",
"y+	c #595A5D",
"z+	c #656D67",
"A+	c #6C816D",
"B+	c #5D795D",
"C+	c #4A5F4C",
"D+	c #424E45",
"E+	c #404644",
"F+	c #4C4E52",
"G+	c #4F5055",
"H+	c #4A4B4F",
"I+	c #494A4C",
"J+	c #48494B",
"K+	c #282829",
"L+	c #201F1F",
"M+	c #1E1D1E",
"N+	c #242527",
"O+	c #313234",
"P+	c #6E6F72",
"Q+	c #515354",
"R+	c #59655E",
"S+	c #556C58",
"T+	c #476447",
"U+	c #405A40",
"V+	c #445744",
"W+	c #3C453E",
"X+	c #3A3D3D",
"Y+	c #4A4A4E",
"Z+	c #555559",
"`+	c #4B4C4E",
" @	c #464749",
".@	c #252627",
"+@	c #1D1D1E",
"@@	c #1D1D1F",
"#@	c #252527",
"$@	c #2E2F32",
"%@	c #37393B",
"&@	c #6C6C6F",
"*@	c #56575A",
"=@	c #4D4F50",
"-@	c #47514E",
";@	c #3D4E42",
">@	c #344935",
",@	c #384E37",
"'@	c #455945",
")@	c #3C453D",
"!@	c #2A2D2C",
"~@	c #3D3E40",
"{@	c #555558",
"]@	c #4B4C4D",
"^@	c #3C3D3F",
"/@	c #303133",
"(@	c #252728",
"_@	c #1F2021",
":@	c #1E1F20",
"<@	c #2C2D2F",
"[@	c #393A3D",
"}@	c #696969",
"|@	c #515152",
"1@	c #444648",
"2@	c #3B4141",
"3@	c #2E3834",
"4@	c #243128",
"5@	c #273329",
"6@	c #2E3830",
"7@	c #2B302F",
"8@	c #252829",
"9@	c #36383A",
"0@	c #4A4C4E",
"a@	c #202022",
"b@	c #222222",
"c@	c #2E2F2F",
"d@	c #5C5C5C",
"e@	c #3E4142",
"f@	c #2C3231",
"g@	c #202825",
"h@	c #212825",
"i@	c #232927",
"j@	c #262B2A",
"k@	c #292E2E",
"l@	c #3D4041",
"m@	c #494C4D",
"n@	c #323335",
"o@	c #262628",
"p@	c #232323",
"q@	c #242424",
"r@	c #4C4C4E",
"s@	c #424244",
"t@	c #333637",
"u@	c #262C2C",
"v@	c #262C2B",
"w@	c #282D2D",
"x@	c #2F3435",
"y@	c #3A3E3F",
"z@	c #4A4E4F",
"A@	c #4C4E4F",
"B@	c #3E3F41",
"C@	c #414243",
"D@	c #434243",
"E@	c #323737",
"F@	c #333737",
"G@	c #3A3E3E",
"H@	c #424548",
"I@	c #4F5154",
"J@	c #56585A",
"K@	c #4E4F50",
"L@	c #3F3F40",
"M@	c #3C3E3F",
"N@	c #3D4042",
"O@	c #414447",
"P@	c #505355",
"Q@	c #57585C",
"R@	c #58595C",
"S@	c #4C4D4E",
"T@	c #464848",
"U@	c #494B4C",
"V@	c #58595A",
"W@	c #636465",
"X@	c #656668",
"                          . + @ # $             ",
"                          % & * = -             ",
"                      ; > , > ' ) ! ~ {         ",
"        ] ^ / ( _ : < [ } | 1 2 3 4 5 6 7 8 9   ",
"    0 a b | c d e f g h i j k l m n o p q r s   ",
"    t u v w x y z A B C D E F G H I J K L M N   ",
"    O P Q R S T U t V W X Y Z `  ...+.@.#.$.%.  ",
"&.*.=.-.;.>.,.'.).!.~.{.].^./.(._.:.<.[.}.|.1.2.",
"3.*.4.5.6.7.8.9.0.a.b.c.d.e.f.g.h.i.j.k.l.m.n.* ",
"*.o.p.q.r.s.t.u.J v.a.w ..w.x.y.z.A.B.C.D.E.F.  ",
"  G.H.I.J.K.L.M.N.O.P.Q.R.{.S.T.U.y.V.W.X.Y.Z.  ",
"    `. +.+++@+#+$+< %+&+P.! *+d.t.=+-+;+;+>+,+  ",
"    '+)+.+!+I.~+{+]+K 2 b.^+/+(+_+x.:+L.<+[+}+  ",
"    |+1+2+3+4+5+6+7+8+J ~.^+9+0+a+r.b+c+d+e+f+  ",
"    H.g+h+= i+j+k+l+m+n+o+p+) q+r+s+t+u+v+w+/+  ",
"    x+y+%.z+A+B+C+D+E+F+G+H+I+J+S.K+L+M+N+O+S.  ",
"    P+y+Q+R+S+T+U+V+W+X+Y+Z+`+ @w..@+@@@#@$@%@  ",
"    &@*@=@-@;@>@,@'@)@!@~@{@]@^@/@(@_@:@c+<@[@  ",
"    }@|@1@2@3@4@5@6@7@8@9@0@ @O+L.x.#@a@b@c@    ",
"      d@]@e@f@g@h@i@j@k@l@m@~@n@n@L.o@p@q@      ",
"        r@s@t@u@v@w@x@y@z@A@@+B@C@              ",
"          D@>+E@F@G@H@I@J@K@L@r@                ",
"            M@N@O@P@Q@%+R@S@T@                  ",
"              B.U@V@W@X@                        "};
