/* XPM */
static char * close_xpm[] = {
"24 24 163 2",
"  	c None",
". 	c #A1A09B",
"+ 	c #E2DECF",
"@ 	c #CBC9BC",
"# 	c #989795",
"$ 	c #828282",
"% 	c #7D7D7D",
"& 	c #767676",
"* 	c #6E6E6E",
"= 	c #666666",
"- 	c #5F5F5F",
"; 	c #575757",
"> 	c #505050",
", 	c #484848",
"' 	c #3F3F3F",
") 	c #383838",
"! 	c #303030",
"~ 	c #6A6A6A",
"{ 	c #A0A09A",
"] 	c #DED7C8",
"^ 	c #D3C8B7",
"/ 	c #DDD8CC",
"( 	c #EEECE7",
"_ 	c #E3E0D7",
": 	c #E4E1D0",
"< 	c #BCBAAF",
"[ 	c #656566",
"} 	c #585859",
"| 	c #404040",
"1 	c #393939",
"2 	c #313131",
"3 	c #DDD6C7",
"4 	c #D3C9B8",
"5 	c #CDC4B3",
"6 	c #C8BEAD",
"7 	c #C2B8A7",
"8 	c #BCB29F",
"9 	c #B7AB99",
"0 	c #BAB0A1",
"a 	c #BCB3A5",
"b 	c #5D5D5C",
"c 	c #DDD5C6",
"d 	c #D4CBBA",
"e 	c #C2B8A6",
"f 	c #BCB2A0",
"g 	c #B7AC9A",
"h 	c #B0A594",
"i 	c #B2A796",
"j 	c #5C5C5B",
"k 	c #752627",
"l 	c #7C3333",
"m 	c #CFC7B5",
"n 	c #AFA492",
"o 	c #8D7876",
"p 	c #AA6565",
"q 	c #FEFEFE",
"r 	c #752727",
"s 	c #8C4F4C",
"t 	c #7B3232",
"u 	c #7B2F2F",
"v 	c #FFFEFE",
"w 	c #C56E6E",
"x 	c #FCF8F8",
"y 	c #B07676",
"z 	c #782A2B",
"A 	c #7C3232",
"B 	c #A45555",
"C 	c #D4ADAD",
"D 	c #DAB5B5",
"E 	c #E0BDBD",
"F 	c #E5C5C5",
"G 	c #EED5D5",
"H 	c #BC6262",
"I 	c #BC6161",
"J 	c #D59C9C",
"K 	c #E7C6C6",
"L 	c #7C3132",
"M 	c #B9B09E",
"N 	c #762A2A",
"O 	c #D4A0A0",
"P 	c #B15151",
"Q 	c #B25252",
"R 	c #B25353",
"S 	c #B35454",
"T 	c #B45656",
"U 	c #B35656",
"V 	c #B65B5B",
"W 	c #DFB3B3",
"X 	c #904545",
"Y 	c #AB4B4B",
"Z 	c #AA4949",
"` 	c #C37D7D",
" .	c #7D3433",
"..	c #823434",
"+.	c #A34040",
"@.	c #A64747",
"#.	c #A64848",
"$.	c #7F3937",
"%.	c #793131",
"&.	c #A03D3D",
"*.	c #A13D3D",
"=.	c #A03C3C",
"-.	c #A23D3D",
";.	c #7A2F2F",
">.	c #B0A493",
",.	c #883535",
"'.	c #8B3636",
").	c #8E3737",
"!.	c #913838",
"~.	c #963A3A",
"{.	c #782B2C",
"].	c #B6AB99",
"^.	c #7C3434",
"/.	c #A43E3E",
"(.	c #7E3232",
"_.	c #792D2E",
":.	c #BBB19F",
"<.	c #9F9A95",
"[.	c #803333",
"}.	c #A33D3D",
"|.	c #AD8C81",
"1.	c #803938",
"2.	c #772A2B",
"3.	c #D0CAB8",
"4.	c #252424",
"5.	c #191919",
"6.	c #151515",
"7.	c #111111",
"8.	c #0F0F0F",
"9.	c #0B0B0B",
"0.	c #5E5E5E",
"a.	c #D8CFBE",
"b.	c #AEA290",
"c.	c #333332",
"d.	c #262626",
"e.	c #212121",
"f.	c #1C1C1C",
"g.	c #181818",
"h.	c #141414",
"i.	c #616161",
"j.	c #C7BDAC",
"k.	c #C4BBA9",
"l.	c #E3DFCD",
"m.	c #B5B3A8",
"n.	c #464646",
"o.	c #333333",
"p.	c #2D2D2D",
"q.	c #1B1B1B",
"r.	c #646464",
"s.	c #DAD3C2",
"t.	c #E1DECD",
"u.	c #ABA9A2",
"v.	c #767777",
"w.	c #737373",
"x.	c #606060",
"y.	c #585858",
"z.	c #4F4F4F",
"A.	c #474747",
"B.	c #2A2A2A",
"C.	c #232323",
"D.	c #848484",
"E.	c #858585",
"F.	c #838383",
"                                                ",
"                                                ",
"                                                ",
"            . + @ # $ % & * = - ; > , ' ) ! ~   ",
"            { ] ^ / ( _ : < [ } ; > , | 1 2 ~   ",
"            { 3 4 5 6 7 8 9 0 a b > , | 1 2 ~   ",
"            . c d 5 6 e f g h i j > , | 1 2 ~   ",
"            . k l m 6 e f g h n j > , | 1 2 ~   ",
"            o p q r s e f g h n j > , | 1 2 ~   ",
"          t u v w x y z f g h n j > , | 1 2 ~   ",
"  A B C D E F G H I J K L M h n j > , | 1 2 ~   ",
"  N O P Q R S T U U U V W A h n j > , | 1 2 ~   ",
"  X Y Y Y Y Y Y Y Y Y Y Z `  .n j > , | 1 2 ~   ",
"  ..+.+.+.+.+.+.+.+.+.+.@.#.$.n j > , | 1 2 ~   ",
"  %.&.*.=.=.*.=.=.*.=.&.-.;.>.n j > , | 1 2 ~   ",
"  A A ,.'.).!.=.*.=.=.~.{.].h n j > , | 1 2 ~   ",
"            ^./.=.=.(._.:.g h n j > , | 1 2 ~   ",
"            <.[.}.t |.e f g h n j > , | 1 2 ~   ",
"            . 1.2.3.6 e f g h n 4.5.6.7.8.9.0.  ",
"            . a.4 5 6 e f g n b.c.d.e.f.g.h.i.  ",
"            . a.4 5 j.k.l.m.n.' 1 o.p.d.e.q.r.  ",
"            . s.t.u.v.w.~ x.y.z.A.| ) 2 B.C.=   ",
"            D.E.D.D.D.D.D.D.D.F.F.F.F.F.F.F.F.  ",
"                                                "};
