/* XPM */
static char * close_xpm[] = {
"24 24 188 2",
"  	c None",
". 	c #2E3436",
"+ 	c #D6D6D4",
"@ 	c #BDBDBC",
"# 	c #A8A8A4",
"$ 	c #92928F",
"% 	c #727370",
"& 	c #61615E",
"* 	c #A0A09E",
"= 	c #20201F",
"- 	c #17250C",
"; 	c #2D4918",
"> 	c #F1F1EF",
", 	c #E6E6E4",
"' 	c #DADAD7",
") 	c #CFCFCD",
"! 	c #C4C4C1",
"~ 	c #A8A8A5",
"{ 	c #767674",
"] 	c #ADADAB",
"^ 	c #1E1E1D",
"/ 	c #B9B9B7",
"( 	c #AEAEAC",
"_ 	c #BBBBBA",
": 	c #262626",
"< 	c #D5D5D3",
"[ 	c #414140",
"} 	c #4B2933",
"| 	c #636362",
"1 	c #1A290F",
"2 	c #1A2A0F",
"3 	c #1B2A10",
"4 	c #304C1A",
"5 	c #9C0507",
"6 	c #AE6D76",
"7 	c #E4E4E2",
"8 	c #1D2C11",
"9 	c #1E2E13",
"0 	c #1F2F13",
"a 	c #324F1C",
"b 	c #9F0305",
"c 	c #C8090B",
"d 	c #A54F58",
"e 	c #D6D5D2",
"f 	c #203014",
"g 	c #223315",
"h 	c #233316",
"i 	c #233417",
"j 	c #35521F",
"k 	c #FF3333",
"l 	c #DB0A0B",
"m 	c #A1353C",
"n 	c #C8C4C4",
"o 	c #5D5D5C",
"p 	c #E5E5E4",
"q 	c #253719",
"r 	c #27391A",
"s 	c #273A1B",
"t 	c #375521",
"u 	c #A20305",
"v 	c #A80000",
"w 	c #AE0000",
"x 	c #FF3131",
"y 	c #FF2D2D",
"z 	c #E70607",
"A 	c #A02127",
"B 	c #BAB2B3",
"C 	c #0C0C0C",
"D 	c #293E1A",
"E 	c #2C421D",
"F 	c #2E441F",
"G 	c #2F4520",
"H 	c #3C5C24",
"I 	c #A30204",
"J 	c #FF2B2B",
"K 	c #FF2F2F",
"L 	c #FF1919",
"M 	c #FF0303",
"N 	c #FF2525",
"O 	c #F10303",
"P 	c #A01317",
"Q 	c #9C9093",
"R 	c #2E461E",
"S 	c #324B21",
"T 	c #344D21",
"U 	c #344E22",
"V 	c #3F6125",
"W 	c #FF2727",
"X 	c #FE0000",
"Y 	c #FC0000",
"Z 	c #FF1F1F",
"` 	c #FA0000",
" .	c #A40B0D",
"..	c #A69499",
"+.	c #365222",
"@.	c #3A5625",
"#.	c #3B5827",
"$.	c #3B5927",
"%.	c #436828",
"&.	c #FF1B1B",
"*.	c #EE0000",
"=.	c #EC0000",
"-.	c #EA0000",
";.	c #A2090B",
">.	c #CBC5C6",
",.	c #385524",
"'.	c #3C5928",
").	c #3E5B29",
"!.	c #3F5C2A",
"~.	c #456A2A",
"{.	c #FF0D0D",
"].	c #DC0000",
"^.	c #D80000",
"/.	c #FF0101",
"(.	c #A60A0B",
"_.	c #A38D93",
":.	c #3B5925",
"<.	c #3E5D28",
"[.	c #40602B",
"}.	c #42622B",
"|.	c #476D2B",
"1.	c #FF0505",
"2.	c #FF0B0B",
"3.	c #F20000",
"4.	c #A50C0D",
"5.	c #A69398",
"6.	c #3D5F25",
"7.	c #416328",
"8.	c #44672B",
"9.	c #466A2C",
"0.	c #4A732C",
"a.	c #A60001",
"b.	c #AB0001",
"c.	c #E60000",
"d.	c #A30D10",
"e.	c #B2A2A5",
"f.	c #406325",
"g.	c #436728",
"h.	c #466B2B",
"i.	c #496E2D",
"j.	c #4C762C",
"k.	c #F80000",
"l.	c #DC0102",
"m.	c #A21215",
"n.	c #BDB0B3",
"o.	c #CECECD",
"p.	c #9D9D9B",
"q.	c #565655",
"r.	c #416527",
"s.	c #45692A",
"t.	c #486D2D",
"u.	c #4B702F",
"v.	c #4D772E",
"w.	c #CE0102",
"x.	c #A3181C",
"y.	c #CAC0C2",
"z.	c #E2E2E1",
"A.	c #777776",
"B.	c #44642B",
"C.	c #426627",
"D.	c #496F2E",
"E.	c #4C7230",
"F.	c #4D7431",
"G.	c #4E792F",
"H.	c #9E0305",
"I.	c #A41F23",
"J.	c #DFD7DA",
"K.	c #DCDCDB",
"L.	c #ACACAB",
"M.	c #8B8B8A",
"N.	c #476A2C",
"O.	c #4A702F",
"P.	c #4D7331",
"Q.	c #4E7532",
"R.	c #4F7633",
"S.	c #507733",
"T.	c #507A2F",
"U.	c #76171F",
"V.	c #E5DFE0",
"W.	c #BFBFBD",
"X.	c #7A7D78",
"Y.	c #476B2C",
"Z.	c #507834",
"`.	c #517935",
" +	c #527935",
".+	c #303336",
"++	c #91968F",
"@+	c #507F2B",
"                                                ",
"              . . . . . . . . . . . . . . . .   ",
"              . + @ # $ % & & * = - - - - ; .   ",
"              . > , ' ) ! ~ { ] ^ - - - - ; .   ",
"              . > , ' ) ! / ( _ : - - - - ; .   ",
"              . > , ' ) ! / / < [ - - - - ; .   ",
"              } > , ' ) ! / / < | 1 2 3 3 4 .   ",
"              5 6 7 ' ) ! / / < | 8 9 9 0 a .   ",
"              b c d e ) ! / / < | f g h i j .   ",
"              b k l m n ! / o p | i q r s t .   ",
"  u v v v v v w x y z A B / o C | D E F G H .   ",
"  I J K K K x K L M N O P Q C < | R S T U V .   ",
"  I W X Y Y Y Y Y Y X Z `  ...< | +.@.#.$.%..   ",
"  I &.*.=.-.-.=.=.=.=.=.&.-.;.>.| ,.'.).!.~..   ",
"  I {.].^.^.^.^.^.^.^./.` (._.< | :.<.[.}.|..   ",
"  I 1.2.2.2.2.2.3.^.Y 3.4.5./ < | 6.7.8.9.0..   ",
"  u a.a.a.a.a.b./.` c.d.e./ / p | f.g.h.i.j..   ",
"              b k.l.m.n.! < o.p.q.r.s.t.u.v..   ",
"              b w.x.y.z.< p.A.B.C.h.D.E.F.G..   ",
"              H.I.J.K.L.M.N.s.t.O.P.Q.R.S.T..   ",
"              U.V.W.X.Y.t.u.P.R.Z.`.`. + + +.   ",
"              .+++@+@+@+@+@+@+@+@+@+@+@+@+@+.   ",
"              . . . . . . . . . . . . . . . .   ",
"                                                "};
