/* XPM */
static char * folder_xpm[] = {
"24 24 172 2",
"  	c None",
". 	c #BBA85C",
"+ 	c #C2B069",
"@ 	c #CAB876",
"# 	c #CDBD83",
"$ 	c #C9B877",
"% 	c #D9C998",
"& 	c #ECDEB3",
"* 	c #E9DAAB",
"= 	c #E7D6A2",
"- 	c #E5D39B",
"; 	c #E8D8A5",
"> 	c #CDBB79",
", 	c #D2C38A",
"' 	c #E6DBB6",
") 	c #E0CA86",
"! 	c #E1CB89",
"~ 	c #DFD0A0",
"{ 	c #D5C489",
"] 	c #D3C28A",
"^ 	c #D6C48A",
"/ 	c #D6C591",
"( 	c #D5C691",
"_ 	c #D8C99A",
": 	c #D8C996",
"< 	c #D8CA9B",
"[ 	c #D6C897",
"} 	c #C3B370",
"| 	c #E3D7AC",
"1 	c #EBE6D7",
"2 	c #ECE6D4",
"3 	c #EAE5D5",
"4 	c #ECE8DC",
"5 	c #E8E3D5",
"6 	c #E7E2D3",
"7 	c #E4DFCD",
"8 	c #E2DCC8",
"9 	c #DFD9C1",
"0 	c #DED5BA",
"a 	c #DCD2AF",
"b 	c #E5E0CC",
"c 	c #F5F5F4",
"d 	c #F5F5F5",
"e 	c #F4F3F2",
"f 	c #CCBA7B",
"g 	c #D8C890",
"h 	c #D9CB98",
"i 	c #E0D3A7",
"j 	c #E5DBB8",
"k 	c #E7DDBB",
"l 	c #E9DFBF",
"m 	c #ECE4C7",
"n 	c #ECE3C6",
"o 	c #ECE2C1",
"p 	c #ECE1BE",
"q 	c #EEE3BD",
"r 	c #EEE2B9",
"s 	c #EFE0B4",
"t 	c #F1E2B5",
"u 	c #F0E2B1",
"v 	c #EADAA6",
"w 	c #D7CA9B",
"x 	c #F2F2F2",
"y 	c #EAE6DA",
"z 	c #BFAA58",
"A 	c #E4D8AF",
"B 	c #F5E9C1",
"C 	c #F3E4B6",
"D 	c #F2E1AE",
"E 	c #F2E0AB",
"F 	c #F1DFA7",
"G 	c #F0DC9F",
"H 	c #EFDB9B",
"I 	c #EFDA99",
"J 	c #EEDA98",
"K 	c #EED998",
"L 	c #EED997",
"M 	c #DDCD91",
"N 	c #E2E0D8",
"O 	c #EFEFEF",
"P 	c #E3DBBF",
"Q 	c #B9A451",
"R 	c #E1D6A9",
"S 	c #EEDEA8",
"T 	c #EAD693",
"U 	c #EAD692",
"V 	c #EAD592",
"W 	c #EAD591",
"X 	c #E9D591",
"Y 	c #E9D590",
"Z 	c #E9D490",
"` 	c #E9D48F",
" .	c #E2CE89",
"..	c #D2CBB1",
"+.	c #E7E7E7",
"@.	c #DBD1A9",
"#.	c #C4B16B",
"$.	c #F2E8C7",
"%.	c #E6D18C",
"&.	c #E6D18B",
"*.	c #E5D08A",
"=.	c #E5D089",
"-.	c #E5D088",
";.	c #E5CF88",
">.	c #E5CF87",
",.	c #DFCA81",
"'.	c #CAC09C",
").	c #E4E4E4",
"!.	c #D2C48F",
"~.	c #EBE2C1",
"{.	c #E1CD82",
"].	c #E0CB7F",
"^.	c #E0CA7B",
"/.	c #DFC97A",
"(.	c #DFC979",
"_.	c #DFCA7B",
":.	c #E0CA7C",
"<.	c #E0CB7E",
"[.	c #DFCA7D",
"}.	c #C3B78B",
"|.	c #C4B271",
"1.	c #D7C995",
"2.	c #E1D090",
"3.	c #DAC575",
"4.	c #DAC574",
"5.	c #DAC676",
"6.	c #C1B481",
"7.	c #E0DFDC",
"8.	c #B9A555",
"9.	c #BAA958",
"0.	c #E3D59F",
"a.	c #D6C16E",
"b.	c #BEAF75",
"c.	c #D9D8CE",
"d.	c #B7A34B",
"e.	c #D9CB90",
"f.	c #D2BD69",
"g.	c #BDAD6A",
"h.	c #D5D2C2",
"i.	c #B7A14A",
"j.	c #CDBE7E",
"k.	c #CDBA65",
"l.	c #CDB964",
"m.	c #BFAC60",
"n.	c #C9C3AB",
"o.	c #B69F49",
"p.	c #C2B168",
"q.	c #CBB865",
"r.	c #C9B55E",
"s.	c #C4B05A",
"t.	c #B9AD7F",
"u.	c #B49F49",
"v.	c #B5A04C",
"w.	c #C8B564",
"x.	c #C7B35E",
"y.	c #C5B159",
"z.	c #AE9D58",
"A.	c #B29C46",
"B.	c #B19B47",
"C.	c #A99544",
"D.	c #A99644",
"E.	c #AA9645",
"F.	c #AB9746",
"G.	c #AC9847",
"H.	c #AD9945",
"I.	c #AE9B46",
"J.	c #B09C48",
"K.	c #B29D49",
"L.	c #B4A04B",
"M.	c #B7A34C",
"N.	c #B9A54E",
"O.	c #A99443",
"                                                ",
"                                                ",
"                                                ",
"                                                ",
"                                                ",
"                                                ",
"              . + @ # $                         ",
"            % & * = - ; >                       ",
"          , ' ) ) ) ) ! ~ { ] ^ / ( _ : < [ }   ",
"        | 1 2 3 1 4 5 6 7 8 9 0 a b c d d e f   ",
"    g h i j k l m n o p q r s t u v w x d y z   ",
"  A B C D E F G H I I J K K L L L L M N O P Q   ",
"  R S T T U V V V V W W X Y Z Z ` `  ...+.@.    ",
"  #.$.%.&.&.&.*.=.-.=.=.=.=.-.;.;.>.,.'.).!.    ",
"    ~.{.{.].^./.(.(.(./._.:.<.].<.<.[.}.).|.    ",
"    1.2.3.4.4.4.4.4.4.4.4.4.4.3.3.5.5.6.7.8.    ",
"    9.0.a.a.a.a.a.a.a.a.a.a.a.a.a.a.a.b.c.d.    ",
"      e.f.f.f.f.f.f.f.f.f.f.f.f.f.f.f.g.h.i.    ",
"      j.k.l.l.l.l.l.l.l.l.l.l.l.l.l.l.m.n.o.    ",
"      p.q.r.r.r.r.r.r.r.r.r.r.r.r.r.r.s.t.u.    ",
"      v.w.x.y.y.y.y.y.y.y.y.y.y.y.y.y.y.z.A.    ",
"          B.C.D.E.E.F.G.H.I.J.K.L.M.N.L.O.      ",
"                                                ",
"                                                "};
