/* XPM */
static char * movie_xpm[] = {
"24 24 336 2",
"  	c None",
". 	c #443636",
"+ 	c #433535",
"@ 	c #322D2B",
"# 	c #7E7E7C",
"$ 	c #D3CFCC",
"% 	c #D6D1CD",
"& 	c #E0DAD5",
"* 	c #C7C6C2",
"= 	c #CAC9C5",
"- 	c #63625E",
"; 	c #555552",
"> 	c #969591",
", 	c #CECAC5",
"' 	c #CDCAC5",
") 	c #C4C3BF",
"! 	c #665E5C",
"~ 	c #423434",
"{ 	c #4C3E3E",
"] 	c #453838",
"^ 	c #362E2E",
"/ 	c #605F5D",
"( 	c #D4D0CD",
"_ 	c #D9D3CF",
": 	c #DCD6D1",
"< 	c #C5C4C0",
"[ 	c #C6C5C1",
"} 	c #A09F9B",
"| 	c #72716F",
"1 	c #BCBCB7",
"2 	c #D7D4CF",
"3 	c #D3CFCB",
"4 	c #CCCBC8",
"5 	c #78706E",
"6 	c #473939",
"7 	c #453737",
"8 	c #3B3130",
"9 	c #424240",
"0 	c #CFCBC8",
"a 	c #D5D0CC",
"b 	c #E1DCD6",
"c 	c #CFCECA",
"d 	c #B6B5B1",
"e 	c #CDCCC8",
"f 	c #979795",
"g 	c #B7B6B2",
"h 	c #DDD9D4",
"i 	c #CFCBC7",
"j 	c #CAC9C6",
"k 	c #8B8683",
"l 	c #483A3A",
"m 	c #4A3C3C",
"n 	c #403333",
"o 	c #302F2E",
"p 	c #CCC8C6",
"q 	c #D8D2CF",
"r 	c #DFD8D4",
"s 	c #DFDCD7",
"t 	c #999691",
"u 	c #706E69",
"v 	c #7F7F78",
"w 	c #DFDFD9",
"x 	c #D4D2CF",
"y 	c #C7C5C3",
"z 	c #C9C9C6",
"A 	c #A6A3A0",
"B 	c #2B2829",
"C 	c #B5B2B2",
"D 	c #D5CFCC",
"E 	c #D2CBC8",
"F 	c #DBD7D1",
"G 	c #E3DFDA",
"H 	c #E5E1DC",
"I 	c #E5E6DB",
"J 	c #DBDCD5",
"K 	c #C4C4C3",
"L 	c #BDBDBE",
"M 	c #B3B3B1",
"N 	c #848381",
"O 	c #3F3232",
"P 	c #423535",
"Q 	c #493C3C",
"R 	c #2E2B2A",
"S 	c #969695",
"T 	c #D4D1CD",
"U 	c #D0CDC8",
"V 	c #C9C7C3",
"W 	c #C7C6C1",
"X 	c #BCBBB6",
"Y 	c #969691",
"Z 	c #70716E",
"` 	c #4B4B4A",
" .	c #2F2F2E",
"..	c #1E1E1C",
"+.	c #1B1B19",
"@.	c #3A2F2E",
"#.	c #312E2D",
"$.	c #626462",
"%.	c #91918C",
"&.	c #6B6A65",
"*.	c #494946",
"=.	c #2C2C2A",
"-.	c #21221F",
";.	c #1F1F20",
">.	c #1D1D1E",
",.	c #1E1E1E",
"'.	c #272726",
").	c #3C3C3A",
"!.	c #545452",
"~.	c #4A4241",
"{.	c #4B3E3E",
"].	c #372E30",
"^.	c #272728",
"/.	c #242120",
"(.	c #231F1D",
"_.	c #2A2828",
":.	c #434241",
"<.	c #686665",
"[.	c #757672",
"}.	c #767774",
"|.	c #7A7A79",
"1.	c #797978",
"2.	c #7E7E7E",
"3.	c #828282",
"4.	c #605959",
"5.	c #3C3132",
"6.	c #2D2C2D",
"7.	c #999593",
"8.	c #BCB8B4",
"9.	c #D2D2C9",
"0.	c #DADAD1",
"a.	c #E3E3DA",
"b.	c #D3D4CE",
"c.	c #B0B1AC",
"d.	c #ABABAA",
"e.	c #8D8D8D",
"f.	c #747474",
"g.	c #7C7C7C",
"h.	c #6B6767",
"i.	c #3F3333",
"j.	c #2B2B28",
"k.	c #D7D3CF",
"l.	c #DDD9D3",
"m.	c #D7D7CC",
"n.	c #E2E2D7",
"o.	c #D9D9CE",
"p.	c #70716A",
"q.	c #4A4B46",
"r.	c #727271",
"s.	c #9A9A9A",
"t.	c #878787",
"u.	c #767676",
"v.	c #747373",
"w.	c #453837",
"x.	c #413434",
"y.	c #2B2A27",
"z.	c #B6B4AF",
"A.	c #DAD5CF",
"B.	c #DAD9D2",
"C.	c #E0DED8",
"D.	c #BEBEB8",
"E.	c #B1B1AC",
"F.	c #686864",
"G.	c #515050",
"H.	c #7D7C7B",
"I.	c #9A9998",
"J.	c #777776",
"K.	c #777676",
"L.	c #2E2B2C",
"M.	c #929091",
"N.	c #DAD1CE",
"O.	c #E1DBD5",
"P.	c #DAD5D2",
"Q.	c #C4C3C0",
"R.	c #B9B8B6",
"S.	c #504F4D",
"T.	c #656462",
"U.	c #999994",
"V.	c #C2C1BB",
"W.	c #CECDCB",
"X.	c #584D4D",
"Y.	c #322C2D",
"Z.	c #747273",
"`.	c #D5CDCA",
" +	c #DDD7D2",
".+	c #D7D3D0",
"++	c #C2C0BE",
"@+	c #D5D4D2",
"#+	c #81807E",
"$+	c #D8D7D1",
"%+	c #C7C6C4",
"&+	c #6B6362",
"*+	c #463838",
"=+	c #373030",
"-+	c #585657",
";+	c #DCD3D0",
">+	c #DEDAD6",
",+	c #CCCAC8",
"'+	c #807F7D",
")+	c #B2B1AF",
"!+	c #737270",
"~+	c #D7D7D2",
"{+	c #D3D3CC",
"]+	c #C9C8C6",
"^+	c #837D7C",
"/+	c #3C3A3D",
"(+	c #D8D3CD",
"_+	c #DBD6D1",
":+	c #DFDBD6",
"<+	c #C9C5BF",
"[+	c #97948D",
"}+	c #D1CEC7",
"|+	c #E0DED9",
"1+	c #C8C8C6",
"2+	c #C5C5C3",
"3+	c #C8C7C7",
"4+	c #999595",
"5+	c #413333",
"6+	c #433434",
"7+	c #2B2A29",
"8+	c #C5C4BE",
"9+	c #D2CEC9",
"0+	c #D2CFC9",
"a+	c #DEDBD4",
"b+	c #E0DDD6",
"c+	c #DDDAD3",
"d+	c #BFBDB9",
"e+	c #999999",
"f+	c #777777",
"g+	c #595959",
"h+	c #343233",
"i+	c #4D3F3F",
"j+	c #2C2927",
"k+	c #ABAAA4",
"l+	c #BDBDB8",
"m+	c #797875",
"n+	c #5A5955",
"o+	c #3A3936",
"p+	c #242321",
"q+	c #1D1D1D",
"r+	c #1B1B1B",
"s+	c #1A1A1A",
"t+	c #211F20",
"u+	c #3B2F30",
"v+	c #302B2D",
"w+	c #3D3C3A",
"x+	c #363634",
"y+	c #242422",
"z+	c #21211F",
"A+	c #21201F",
"B+	c #222222",
"C+	c #262626",
"D+	c #343434",
"E+	c #404040",
"F+	c #4D4D4D",
"G+	c #616161",
"H+	c #706E6F",
"I+	c #4D4444",
"J+	c #332D2C",
"K+	c #272727",
"L+	c #3C3A38",
"M+	c #5E5D5B",
"N+	c #7D7C79",
"O+	c #A19D95",
"P+	c #C8C5BE",
"Q+	c #ACADA7",
"R+	c #8F8F8D",
"S+	c #636363",
"T+	c #686868",
"U+	c #504949",
"V+	c #372F2E",
"W+	c #4D4D4C",
"X+	c #DDDDD4",
"Y+	c #DCDCD4",
"Z+	c #D4D4CB",
"`+	c #DBD8D0",
" @	c #E1DFD9",
".@	c #949490",
"+@	c #6E6E6D",
"@@	c #8A8A8A",
"#@	c #606060",
"$@	c #646464",
"%@	c #5C5857",
"&@	c #433636",
"*@	c #493B3B",
"=@	c #3D3232",
"-@	c #373736",
";@	c #D1D0CB",
">@	c #D2D2CC",
",@	c #D4D4CE",
"'@	c #DEDAD5",
")@	c #A7A4A0",
"!@	c #4B4B4C",
"~@	c #535353",
"{@	c #888888",
"]@	c #7F7F7F",
"^@	c #605D5C",
"/@	c #BABAB8",
"(@	c #D0CECB",
"_@	c #DAD7D4",
":@	c #D4D1CE",
"<@	c #C3C1BF",
"[@	c #AFAEAD",
"}@	c #3E3D3D",
"|@	c #5D5C5B",
"1@	c #706F6E",
"2@	c #8B8A8A",
"3@	c #676665",
"4@	c #676664",
"5@	c #413534",
"6@	c #443736",
"7@	c #2C2A28",
"8@	c #9D9D9A",
"9@	c #D0CEC9",
"0@	c #CECCCA",
"a@	c #BDBCBA",
"b@	c #AFAEAC",
"c@	c #8B8A88",
"d@	c #585755",
"e@	c #8F8E8C",
"f@	c #A3A2A0",
"g@	c #7D7C7A",
"h@	c #787775",
"i@	c #473C3C",
"j@	c #33312F",
"k@	c #848481",
"l@	c #CBC9C4",
"m@	c #D7D3CD",
"n@	c #D6D4D1",
"o@	c #BEBDBB",
"p@	c #B5B4B2",
"q@	c #CBCAC8",
"r@	c #7E7D7B",
"s@	c #D3D2D0",
"t@	c #CFCECC",
"u@	c #655F5E",
".   + @ # $ % & * = - ; > , ' ) !               ",
"~ { ] ^ / ( _ : < [ } | 1 2 3 4 5 ~ ~ ~         ",
"~ 6 7 8 9 0 a b c d e f g h i j k l   m         ",
"  +   n o p q r s t u v w x y z A 7 + +         ",
"  ~ ~ ~ B C D E F G H I J K L M N O   l         ",
"  P   Q R S T U V W X Y Z `  ...+.@.7 7         ",
"  ~ ~ ~ #.$.%.&.*.=.-.;.>.,.'.).!.~.  {.~       ",
"  ~   + ].^./.(._.:.<.[.}.|.1.2.3.4.~ l ~       ",
"  ~ ~   5.6.7.8.9.0.a.b.c.d.e.f.g.h.~ + .       ",
"    ~ ~ i.j.k.l.m.n.o.p.q.r.s.t.u.v.7   w.      ",
"    .   x.y.z.A.B.C.D.E.F.G.H.I.J.K.P ~ ~       ",
"    ~ ~ + L.M.N.O.P.Q.R.S.T.U.V.[ W.X.  ~       ",
"    ~   ~ Y.Z.`. +.+++W.@+#+W $+e %+&+~ *+~     ",
"    ~ ~ . =+-+;+ +>+,+'+)+!+~+{+[ ]+^+~ 7 ~     ",
"    ~ ~ ~ 5./+$ (+_+:+<+[+}+|+1+2+3+4+5+  6+    ",
"      + + n 7+8+2 9+0+a+b+c+d+e+f+g+h+O + +     ",
"      ~   i+j+k+c l+U.m+n+o+p+q+r+s+t+u+~ .     ",
"      ~ ~ *+v+w+x+y+z+A+B+C+D+E+F+G+H+I+7 7 ~   ",
"      ~   . J+K+L+M+N+O+P+Q+R+2.S+S+T+U+~   ~   ",
"      ~ ~ ~ V+W+X+Y+Z+`+ @.@+@@@t.#@$@%@&@*@~   ",
"      ~ ~ + =@-@;@>@,@'@)@r.!@~@{@]@T+^@5+  ~   ",
"        ~   x.7+/@(@_@:@<@[@}@|@1@2@3@4@5@~ 6@  ",
"        ~ . ~ 7@8@9@F 0@a@b@c@d@e@f@g@h@i@  + ~ ",
"        +     j@k@l@m@n@o@p@q@r@s@@+t@t@u@+ ~ i+"};
