/* XPM */
static char * movie_xpm[] = {
"24 24 86 1",
" 	c None",
".	c #404040",
"+	c #424546",
"@	c #88ABCF",
"#	c #555F6B",
"$	c #3E3E3E",
"%	c #474D51",
"&	c #5E6C7C",
"*	c #414344",
"=	c #525A64",
"-	c #3F3F3F",
";	c #87AACE",
">	c #4C5359",
",	c #414142",
"'	c #6A8197",
")	c #7793B0",
"!	c #7793AF",
"~	c #728CA7",
"{	c #44474A",
"]	c #44484B",
"^	c #434446",
"/	c #484D52",
"(	c #45484B",
"_	c #494D52",
":	c #424547",
"<	c #7798B9",
"[	c #7DA1C6",
"}	c #7CA1C5",
"|	c #7CA0C5",
"1	c #7B9EC3",
"2	c #4C545C",
"3	c #799EC3",
"4	c #799DC3",
"5	c #789DC2",
"6	c #495157",
"7	c #759AC0",
"8	c #759ABF",
"9	c #749ABF",
"0	c #7499BF",
"a	c #495057",
"b	c #42484B",
"c	c #7197BC",
"d	c #7196BC",
"e	c #7096BC",
"f	c #51616F",
"g	c #45494E",
"h	c #6D93B9",
"i	c #6C93B9",
"j	c #506272",
"k	c #3F4141",
"l	c #6A90B6",
"m	c #6990B6",
"n	c #698FB6",
"o	c #474F57",
"p	c #668DB3",
"q	c #668CB3",
"r	c #658CB3",
"s	c #658CB2",
"t	c #474D55",
"u	c #414346",
"v	c #6289B0",
"w	c #6189B0",
"x	c #6189AF",
"y	c #6188AF",
"z	c #4A5560",
"A	c #414648",
"B	c #50657A",
"C	c #567390",
"D	c #557390",
"E	c #55738F",
"F	c #536D86",
"G	c #464D54",
"H	c #404142",
"I	c #42474B",
"J	c #46515B",
"K	c #444B53",
"L	c #404243",
"M	c #557CA1",
"N	c #567FA7",
"O	c #567FA6",
"P	c #567EA6",
"Q	c #41464A",
"R	c #404141",
"S	c #547DA5",
"T	c #454D58",
"U	c #485A6D",
"                        ",
"                        ",
"                        ",
"   . +@@@@@@@@@@@@# $   ",
"     %@@@@@@@@@@@@&     ",
"   ..*@@@@@@@@@@@@=.-   ",
"   --.@@@@@@@@@@;;>--   ",
"   --,')))))))!!!~{--   ",
"     ]^//////////(_     ",
"     :<[[[}}}||||12     ",
"   ---3344555555556--   ",
"   ---778888899000a--   ",
"     bcccccdddddeef     ",
"     ghhhhhhhhhhiij     ",
"   --klmmmmmmmnnnno--   ",
"   ---pqqrrrrrrrrst--   ",
"   $ uvvvvvvwwxxxyz -   ",
"     ABCCCCCDDDEEFG     ",
"   --HIJJJJJJJJJJKL--   ",
"   ---MNNNOOOPPPPPQ--   ",
"   --RSSSSSSSSSSSST--   ",
"      SSSSSSSSSSSSU     ",
"                        ",
"                        "};
