/* XPM */
static char * movie2_xpm[] = {
"32 24 206 2",
"  	c None",
". 	c #B0B0B0",
"+ 	c #878787",
"@ 	c #757978",
"# 	c #3F4342",
"$ 	c #3A3E3D",
"% 	c #535756",
"& 	c #8B8B8B",
"* 	c #DADDDC",
"= 	c #A7ACAA",
"- 	c #B6BBBA",
"; 	c #A0A5A3",
"> 	c #888D8B",
", 	c #363B3A",
"' 	c #313635",
") 	c #1E2322",
"! 	c #8A8A8A",
"~ 	c #CCCECD",
"{ 	c #7B7D7C",
"] 	c #656867",
"^ 	c #757B79",
"/ 	c #434847",
"( 	c #5F6261",
"_ 	c #A1A3A2",
": 	c #BABCBB",
"< 	c #DCE1DF",
"[ 	c #6E7673",
"} 	c #101715",
"| 	c #B3B3B3",
"1 	c #818282",
"2 	c #B6B9B8",
"3 	c #B9BEBD",
"4 	c #8B908E",
"5 	c #999E9C",
"6 	c #BEC1C0",
"7 	c #CECFCF",
"8 	c #D2D0D0",
"9 	c #A9A8A9",
"0 	c #454A48",
"a 	c #1A2521",
"b 	c #171F1C",
"c 	c #D1D1D1",
"d 	c #BFBFBF",
"e 	c #B4B4B4",
"f 	c #B1B2B2",
"g 	c #9EA1A0",
"h 	c #525755",
"i 	c #313735",
"j 	c #545A58",
"k 	c #A7ABAA",
"l 	c #979A99",
"m 	c #989B9A",
"n 	c #2C302F",
"o 	c #242A28",
"p 	c #252C2A",
"q 	c #505554",
"r 	c #CDCDCD",
"s 	c #818181",
"t 	c #6A6A6A",
"u 	c #727272",
"v 	c #C6C7C6",
"w 	c #0F1211",
"x 	c #3D4240",
"y 	c #989E9C",
"z 	c #8E9291",
"A 	c #303533",
"B 	c #202725",
"C 	c #242D2A",
"D 	c #2E3A36",
"E 	c #404342",
"F 	c #C9CACA",
"G 	c #D2D2D2",
"H 	c #565656",
"I 	c #1E1E1E",
"J 	c #CACBCB",
"K 	c #8A8F8E",
"L 	c #474D4B",
"M 	c #3C413F",
"N 	c #2C3331",
"O 	c #25302C",
"P 	c #424F4B",
"Q 	c #1B2D27",
"R 	c #2F3935",
"S 	c #D8DBDA",
"T 	c #D0D3D2",
"U 	c #AFB1B0",
"V 	c #797B7A",
"W 	c #B6B7B6",
"X 	c #B9BABB",
"Y 	c #797E7E",
"Z 	c #444A4A",
"` 	c #2A2C2D",
" .	c #2C2F31",
"..	c #313B3C",
"+.	c #344040",
"@.	c #4C5B5A",
"#.	c #263635",
"$.	c #414A49",
"%.	c #C1C1C1",
"&.	c #AFAEAF",
"*.	c #C8C7C7",
"=.	c #9C9B9B",
"-.	c #89888A",
";.	c #464C4C",
">.	c #2F3938",
",.	c #2C3434",
"'.	c #464F4F",
").	c #5D6C6C",
"!.	c #374444",
"~.	c #495455",
"{.	c #4A5355",
"].	c #9B999A",
"^.	c #B0B1B1",
"/.	c #585659",
"(.	c #394040",
"_.	c #5A6966",
":.	c #3A4B47",
"<.	c #3A4A47",
"[.	c #4A5A58",
"}.	c #202A2A",
"|.	c #737779",
"1.	c #BCBEBD",
"2.	c #6B726F",
"3.	c #222C29",
"4.	c #333939",
"5.	c #424F4D",
"6.	c #6F837E",
"7.	c #4B5E5A",
"8.	c #2B3936",
"9.	c #3A423F",
"0.	c #646A69",
"a.	c #595C5B",
"b.	c #3D4644",
"c.	c #4C5B57",
"d.	c #485B56",
"e.	c #475855",
"f.	c #2A3C37",
"g.	c #697C78",
"h.	c #53615E",
"i.	c #3F4544",
"j.	c #4E5251",
"k.	c #3F4340",
"l.	c #131715",
"m.	c #384442",
"n.	c #6B7E7D",
"o.	c #819796",
"p.	c #4A5F59",
"q.	c #182621",
"r.	c #2E3935",
"s.	c #393E3D",
"t.	c #5D6060",
"u.	c #414947",
"v.	c #32403C",
"w.	c #384642",
"x.	c #212E29",
"y.	c #283835",
"z.	c #5D716F",
"A.	c #768C89",
"B.	c #485752",
"C.	c #2D3733",
"D.	c #4C5652",
"E.	c #4A4B4F",
"F.	c #383F40",
"G.	c #4B5B59",
"H.	c #6A827E",
"I.	c #647B77",
"J.	c #3B4F4D",
"K.	c #142420",
"L.	c #3E504C",
"M.	c #51615E",
"N.	c #545B59",
"O.	c #3C3F40",
"P.	c #2C393A",
"Q.	c #455555",
"R.	c #819594",
"S.	c #8DA4A1",
"T.	c #869D9C",
"U.	c #465B59",
"V.	c #162321",
"W.	c #262F2C",
"X.	c #4F5653",
"Y.	c #4B5052",
"Z.	c #324142",
"`.	c #4D6663",
" +	c #728E8A",
".+	c #93AAA8",
"++	c #778988",
"@+	c #3D4C4A",
"#+	c #373D3C",
"$+	c #717372",
"%+	c #353E41",
"&+	c #405855",
"*+	c #5A7773",
"=+	c #5F7472",
"-+	c #404D4B",
";+	c #47504D",
">+	c #374242",
",+	c #384545",
"'+	c #394344",
")+	c #4C5453",
"!+	c #404443",
"~+	c #3C403F",
"{+	c #898989",
"]+	c #8D8D8D",
"^+	c #8F8F8F",
"/+	c #979797",
"                                                              . ",
"                                                              + ",
"                                              @ # $ %         & ",
"                                    * = - ; > ; , ' )         ! ",
"                                ~ { ] ^ / ( _ : < [ }         ! ",
"                            | 1 2 3 4 5 6 7 8 9 0 a b         ! ",
"                        c d e f g h i j k l m n o p q         ! ",
"                      r s t u v w x y z A B C D C E           ! ",
"                    F G H I e J l K L M N O P Q R             ! ",
"                  S T U V W X Y Z `  ...+.@.#.$.              ! ",
"                    %.&.*.=.-.;.>.,.'.).!.~.{.                ! ",
"                      ].7 ^./.(._.:.<.[.}.|.                  ! ",
"                      1.2.3.4.5.6.7.8.9.0.                    ! ",
"                    a.b.c.d.e.f.g.h.i.                        ! ",
"                j.k.l.m.n.o.p.q.r.s.                          ! ",
"            t.u.v.w.x.y.z.A.B.C.D.                            ! ",
"          E.F.G.H.I.J.K.L.M.N.                                ! ",
"        O.P.Q.R.S.T.U.V.W.X.                                  ! ",
"        Y.Z.`. +.+++@+#+$+                                    ! ",
"          %+&+*+=+-+;+                                        ! ",
"            >+,+'+)+                                          ! ",
"            !+~+                                              ! ",
"                                                              {+",
"  ]+& ]+]+]+^+]+]+]+]+]+]+]+]+]+]+]+]+]+]+]+]+]+]+]+]+]+]+]+]+/+"};
