/* XPM */
static char * movie_xpm[] = {
"24 24 276 2",
"  	c None",
". 	c #90918D",
"+ 	c #8B8D88",
"@ 	c #888A85",
"# 	c #898B86",
"$ 	c #8F918C",
"% 	c #A1A39F",
"& 	c #E2E3E1",
"* 	c #EEEEEE",
"= 	c #EAEAE9",
"- 	c #DDDFDC",
"; 	c #CACDC7",
"> 	c #DFE0DC",
", 	c #CBCDC8",
"' 	c #CACDC6",
") 	c #B5B6B3",
"! 	c #E2E2E2",
"~ 	c #D9DAD7",
"{ 	c #B9BBB7",
"] 	c #DFDFDE",
"^ 	c #DBDCD9",
"/ 	c #BCBFB8",
"( 	c #959792",
"_ 	c #A2A49F",
": 	c #E0E0DF",
"< 	c #BBBEC0",
"[ 	c #969FA1",
"} 	c #ACB2B4",
"| 	c #DBDCDC",
"1 	c #DFE0DE",
"2 	c #C1C4BE",
"3 	c #F4F5F4",
"4 	c #E0E1DD",
"5 	c #DDDFDA",
"6 	c #D7D8D4",
"7 	c #DCDEDA",
"8 	c #DCDDD9",
"9 	c #D6D8D3",
"0 	c #DBDDD8",
"a 	c #DBDCD8",
"b 	c #D9DBD6",
"c 	c #989A95",
"d 	c #8D8F8A",
"e 	c #D1D2D1",
"f 	c #6E7475",
"g 	c #465053",
"h 	c #556166",
"i 	c #4A565D",
"j 	c #454E52",
"k 	c #C9CACA",
"l 	c #D0D1CF",
"m 	c #D3D3D2",
"n 	c #C9CBCB",
"o 	c #D8D9D9",
"p 	c #BFC1C2",
"q 	c #CCCDCD",
"r 	c #D1D2D3",
"s 	c #C0C3C3",
"t 	c #F8F8F8",
"u 	c #FDFDFD",
"v 	c #E1E1E0",
"w 	c #939490",
"x 	c #91928E",
"y 	c #B7B9B7",
"z 	c #191A1A",
"A 	c #02050A",
"B 	c #5B78A3",
"C 	c #253650",
"D 	c #22334C",
"E 	c #656A70",
"F 	c #D0D0CF",
"G 	c #C0C1C0",
"H 	c #EAEBEB",
"I 	c #E5E6E5",
"J 	c #C6C7C7",
"K 	c #CED0CF",
"L 	c #D4D5D6",
"M 	c #D5D6D7",
"N 	c #F2F2F1",
"O 	c #F1F2F0",
"P 	c #EEEFEE",
"Q 	c #9A9C98",
"R 	c #90928D",
"S 	c #939596",
"T 	c #000000",
"U 	c #03080E",
"V 	c #1F3E6C",
"W 	c #434343",
"X 	c #424242",
"Y 	c #4F555C",
"Z 	c #CBCBCA",
"` 	c #C0C1BF",
" .	c #FBFBFA",
"..	c #E6E6E4",
"+.	c #E0E1DF",
"@.	c #E5E6E3",
"#.	c #E5E6E4",
"$.	c #E6E7E5",
"%.	c #E7E8E6",
"&.	c #E5E5E3",
"*.	c #989A96",
"=.	c #BDBDBC",
"-.	c #323434",
";.	c #243247",
">.	c #848140",
",.	c #575C62",
"'.	c #929495",
").	c #D1D1D0",
"!.	c #EDEEEC",
"~.	c #B2B3B2",
"{.	c #F2F2F2",
"].	c #D7D8D5",
"^.	c #D8D9D6",
"/.	c #E8E9E7",
"(.	c #DADBD8",
"_.	c #A8A8A7",
":.	c #DCDDDB",
"<.	c #7A7C78",
"[.	c #989995",
"}.	c #A1A5A4",
"|.	c #7D8588",
"1.	c #798488",
"2.	c #757F83",
"3.	c #8F9294",
"4.	c #C1C2C0",
"5.	c #B6B8B3",
"6.	c #939694",
"7.	c #383D3F",
"8.	c #2E3436",
"9.	c #323739",
"0.	c #91948E",
"a.	c #BCBDBB",
"b.	c #B6B8B9",
"c.	c #BFC0BF",
"d.	c #B7B7B5",
"e.	c #ACB0AA",
"f.	c #9FA19C",
"g.	c #91948D",
"h.	c #363C3D",
"i.	c #7D7F7D",
"j.	c #959694",
"k.	c #9D9E9D",
"l.	c #A3A3A2",
"m.	c #A8A8A8",
"n.	c #A9A9A9",
"o.	c #AAAAAA",
"p.	c #9F9F9E",
"q.	c #4C4F4C",
"r.	c #2F3537",
"s.	c #646662",
"t.	c #979993",
"u.	c #848781",
"v.	c #7D7F7A",
"w.	c #7A7B77",
"x.	c #7D7E79",
"y.	c #82847E",
"z.	c #8D9189",
"A.	c #747672",
"B.	c #595B57",
"C.	c #5A5C58",
"D.	c #61625F",
"E.	c #686965",
"F.	c #6F706D",
"G.	c #757773",
"H.	c #7B7D7A",
"I.	c #B1B1B1",
"J.	c #555753",
"K.	c #ACAFAD",
"L.	c #555B5A",
"M.	c #EEEEEC",
"N.	c #B8BBB4",
"O.	c #787978",
"P.	c #6C6C6C",
"Q.	c #575A55",
"R.	c #5F615D",
"S.	c #666764",
"T.	c #6C6E6A",
"U.	c #747571",
"V.	c #7B7D78",
"W.	c #B0B0B0",
"X.	c #9C9E9E",
"Y.	c #B3B6AF",
"Z.	c #E0E0E0",
"`.	c #565854",
" +	c #5C5F5B",
".+	c #646661",
"++	c #6B6C68",
"@+	c #71736F",
"#+	c #797A76",
"$+	c #80817D",
"%+	c #AEAFAD",
"&+	c #A8ABAA",
"*+	c #ECECEA",
"=+	c #AFB2AB",
"-+	c #5A5D58",
";+	c #7F817D",
">+	c #848582",
",+	c #7E7F7C",
"'+	c #8D8F8B",
")+	c #888A86",
"!+	c #858782",
"~+	c #A3A4A3",
"{+	c #CED0CB",
"]+	c #BABDB6",
"^+	c #E8E8E6",
"/+	c #AEB0AA",
"(+	c #767675",
"_+	c #5F625D",
":+	c #A3A4A2",
"<+	c #B2B3B1",
"[+	c #B0B1AE",
"}+	c #ADAEAC",
"|+	c #979A95",
"1+	c #91928F",
"2+	c #B8BAB5",
"3+	c #A9ACA5",
"4+	c #E3E3E1",
"5+	c #ADB0A9",
"6+	c #9B9E97",
"7+	c #777974",
"8+	c #515451",
"9+	c #60625E",
"0+	c #676964",
"a+	c #6B6D69",
"b+	c #6E706C",
"c+	c #676A65",
"d+	c #4F524F",
"e+	c #595C58",
"f+	c #999B97",
"g+	c #959991",
"h+	c #949890",
"i+	c #D1D1CE",
"j+	c #B5B8B2",
"k+	c #A0A39C",
"l+	c #8C8F89",
"m+	c #595C5A",
"n+	c #323839",
"o+	c #33393A",
"p+	c #34393B",
"q+	c #33383A",
"r+	c #313638",
"s+	c #585A55",
"t+	c #787C76",
"u+	c #7F837B",
"v+	c #AFB1AC",
"w+	c #C5C7C3",
"x+	c #A8AAA4",
"y+	c #9C9F98",
"z+	c #959891",
"A+	c #8D908A",
"B+	c #858883",
"C+	c #828680",
"D+	c #7E817C",
"E+	c #797C77",
"F+	c #757873",
"G+	c #70736E",
"H+	c #6E716C",
"I+	c #747772",
"J+	c #535652",
"K+	c #585A56",
"L+	c #70746D",
"M+	c #777B74",
"N+	c #82867F",
"O+	c #ACAFAA",
"P+	c #C5C6C3",
"Q+	c #C2C2BF",
"R+	c #BABBB8",
"S+	c #B3B4B0",
"T+	c #ABADA9",
"U+	c #A4A5A2",
"V+	c #9D9E9A",
"W+	c #959793",
"X+	c #8E908B",
"Y+	c #878884",
"Z+	c #7F817C",
"`+	c #575955",
"                                                ",
"                                                ",
"        . + @ @ @ @ @ @ @ @ @ @ @ # $           ",
"    + % & * = - ; > , ' ) ! ~ { ] ^ / ( +       ",
"    _ : < [ } | 1 2 3 4 5 6 7 8 9 0 a b c       ",
"  d e f g h i j k l m n o p q r s t u u v w     ",
"  x y z A B C D E F G H I J K L M N O O P Q     ",
"  R S T U V W X Y Z `  ...+.@.#.$.#.%.#.&.*.    ",
"  + =.-.T ;.>.,.'.` ).!.~.{.].^./.(._.:.(.<.    ",
"    [.}.|.1.2.3.4.5.F 6.7.8.8.8.8.8.8.8.8.9.    ",
"    # 0.a.b.c.d.e.f.g.h.i.j.k.l.m.n.n.o.p.q.r.  ",
"      s.t.u.v.w.x.y.z.8.A.B.C.D.E.F.G.H.I.J.8.  ",
"      J.K.8.L.M.N.O.P.8.J.J.Q.R.S.T.U.V.W.J.8.  ",
"      J.X.8.8.M.Y.P.Z.8.J.`. +.+++@+#+$+%+J.8.  ",
"      J.&+8.L.*+=+P.Z.8.J.-+;+>+,+'+)+!+~+J.8.  ",
"      J.{+]+]+^+/+(+P.8.`._+:+<+[+}+|+@ 1+J.8.  ",
"      Q.2+3+3+4+5+6+7+9.8+ +9+.+0+a+b+b+c+d+r.  ",
"      e+f+g+h+i+j+k+l+m+n+o+p+o+o+o+o+q+o+r+    ",
"      s+t+u+u+v+w+x+y+z+A+B+C+D+E+F+G+H+I+J+    ",
"        K+L+M+N+O+P+Q+R+S+T+U+V+W+X+Y+Z+F+J.    ",
"          `+J.J.J.J.J.J.J.J.J.J.J.J.J.J.`.      ",
"                                                ",
"                                                ",
"                                                "};
