/* XPM */
static char * movie_xpm[] = {
"24 24 158 2",
"  	c None",
". 	c #3E4241",
"+ 	c #464A4A",
"@ 	c #B9BDBB",
"# 	c #B6BDBA",
"$ 	c #949997",
"% 	c #909493",
"& 	c #313635",
"* 	c #343838",
"= 	c #BBBDBC",
"- 	c #7E8180",
"; 	c #999E9C",
"> 	c #8A8F8D",
", 	c #929694",
"' 	c #A6A8A7",
") 	c #727776",
"! 	c #313836",
"~ 	c #B6B8B7",
"{ 	c #7B7F7D",
"] 	c #747977",
"^ 	c #747877",
"/ 	c #9D9F9E",
"( 	c #ADADAD",
"_ 	c #909694",
": 	c #323B39",
"< 	c #CCCCCC",
"[ 	c #B7B7B7",
"} 	c #A0A0A0",
"| 	c #A1A4A3",
"1 	c #727775",
"2 	c #707674",
"3 	c #B2B6B5",
"4 	c #B4B5B4",
"5 	c #7D7E7E",
"6 	c #2F3633",
"7 	c #29312F",
"8 	c #CDCDCD",
"9 	c #A1A1A1",
"0 	c #8D8D8D",
"a 	c #ADAEAD",
"b 	c #474A49",
"c 	c #646A68",
"d 	c #808684",
"e 	c #636766",
"f 	c #585E5C",
"g 	c #414846",
"h 	c #272E2C",
"i 	c #3A3F3D",
"j 	c #CDCFCF",
"k 	c #6C6C6C",
"l 	c #797979",
"m 	c #B9BAB9",
"n 	c #585C5B",
"o 	c #5E6362",
"p 	c #5D6362",
"q 	c #353C39",
"r 	c #323C39",
"s 	c #283532",
"t 	c #2C3431",
"u 	c #414443",
"v 	c #C6C6C6",
"w 	c #636262",
"x 	c #868686",
"y 	c #A9ABAB",
"z 	c #747878",
"A 	c #505555",
"B 	c #383F3E",
"C 	c #2F3937",
"D 	c #364440",
"E 	c #2E3C39",
"F 	c #303A36",
"G 	c #CED0CF",
"H 	c #B5B6B6",
"I 	c #A3A3A2",
"J 	c #A5A5A6",
"K 	c #707474",
"L 	c #363D3D",
"M 	c #323738",
"N 	c #434E4F",
"O 	c #3B4747",
"P 	c #414E4E",
"Q 	c #3D4847",
"R 	c #A7A5A6",
"S 	c #C7C7C7",
"T 	c #959395",
"U 	c #4E5253",
"V 	c #414E4B",
"W 	c #374342",
"X 	c #4A5A58",
"Y 	c #343F3F",
"Z 	c #5C6466",
"` 	c #A2A2A2",
" .	c #8E9392",
"..	c #595D5C",
"+.	c #3F4847",
"@.	c #5A6C67",
"#.	c #3C4C49",
"$.	c #404D4A",
"%.	c #4E5655",
"&.	c #666C6F",
"*.	c #838987",
"=.	c #4F5B58",
"-.	c #33403D",
";.	c #374543",
">.	c #627570",
",.	c #353E3B",
"'.	c #686E6D",
").	c #4A4E4D",
"!.	c #393D3B",
"~.	c #394240",
"{.	c #5E706D",
"].	c #566A66",
"^.	c #2B3C37",
"/.	c #4A5854",
"(.	c #444C4A",
"_.	c #474E4B",
":.	c #39423F",
"<.	c #2C3531",
"[.	c #2A3734",
"}.	c #687C7A",
"|.	c #617571",
"1.	c #2F3C37",
"2.	c #454E4B",
"3.	c #3F4547",
"4.	c #4B5553",
"5.	c #526561",
"6.	c #3F504C",
"7.	c #22312E",
"8.	c #526462",
"9.	c #5A6865",
"0.	c #313C38",
"a.	c #434C49",
"b.	c #3E4749",
"c.	c #586968",
"d.	c #7B9490",
"e.	c #5B716E",
"f.	c #21312E",
"g.	c #3E4B48",
"h.	c #515B58",
"i.	c #3E4546",
"j.	c #3C4D4D",
"k.	c #6D8482",
"l.	c #8CA2A0",
"m.	c #607372",
"n.	c #2D3937",
"o.	c #4C5250",
"p.	c #3C4E4E",
"q.	c #607C79",
"r.	c #6F8582",
"s.	c #4E5C59",
"t.	c #3A4847",
"u.	c #485B59",
"v.	c #4E5C5B",
"w.	c #46524F",
"x.	c #394241",
"y.	c #383F3F",
"z.	c #3B4344",
"A.	c #3D4140",
"                                                ",
"                                                ",
"                                    . +         ",
"                            @ # $ % & *         ",
"                        = - ; > , ' ) !         ",
"                        ~ { ] ^ / ( _ :         ",
"                  < [ } | 1 2 3 4 5 6 7         ",
"                8 9 0 a b c d e f g h i         ",
"              j 8 k l m n o p q r s t u         ",
"              j v w x y z A B C D E F           ",
"              G H I J K L M N O P Q             ",
"                R S T U V W X Y Z               ",
"                `  ...+.@.#.$.%.&.              ",
"                *.=.-.;.>.$.,.'.                ",
"            ).!.~.{.].^./.(.                    ",
"          _.:.<.[.}.|.1.2.                      ",
"        3.4.5.6.7.8.9.0.a.                      ",
"        b.c.d.e.f.g.h.                          ",
"      i.j.k.l.m.n.o.                            ",
"        p.q.r.s.                                ",
"        t.u.v.w.                                ",
"        x.y.z.                                  ",
"          A.                                    ",
"                                                "};
