/* XPM */
static char * save_xpm[] = {
"24 24 203 2",
"  	c None",
". 	c #4E9A06",
"+ 	c #4F9C08",
"@ 	c #E3F7CF",
"# 	c #ECFADE",
"$ 	c #E1F7CC",
"% 	c #D0F3AE",
"& 	c #559F11",
"* 	c #E0F7CA",
"= 	c #B5ED7F",
"- 	c #8AE234",
"; 	c #CCF2A7",
"> 	c #8E8F8C",
", 	c #888A85",
"' 	c #828B75",
") 	c #8F928B",
"! 	c #B8B8B5",
"~ 	c #F5F5F4",
"{ 	c #F6F6F5",
"] 	c #FDFDFD",
"^ 	c #E2E9D7",
"/ 	c #E0E0DF",
"( 	c #F3F3F2",
"_ 	c #B1B2AF",
": 	c #90918D",
"< 	c #DCDCDA",
"[ 	c #F1F1EF",
"} 	c #569F11",
"| 	c #E3F8CF",
"1 	c #D0F3AD",
"2 	c #CDF3A9",
"3 	c #59A016",
"4 	c #EDEDEB",
"5 	c #D4D4D3",
"6 	c #8F908C",
"7 	c #8E918B",
"8 	c #ECECEB",
"9 	c #F1F1F0",
"0 	c #9DC476",
"a 	c #5EA519",
"b 	c #D4F2B6",
"c 	c #DEF7C6",
"d 	c #D3F4B3",
"e 	c #CFF3AB",
"f 	c #ACEB70",
"g 	c #CEF0AC",
"h 	c #91B869",
"i 	c #E6E7E4",
"j 	c #E1E2E0",
"k 	c #8F918B",
"l 	c #8A8C87",
"m 	c #F6F6F6",
"n 	c #EBECE9",
"o 	c #7EB34B",
"p 	c #6CB12C",
"q 	c #D8F4BD",
"r 	c #C6F19C",
"s 	c #99E64E",
"t 	c #C9F0A3",
"u 	c #68AF26",
"v 	c #79AE46",
"w 	c #DBDCD9",
"x 	c #DEDFDC",
"y 	c #969894",
"z 	c #F8F8F7",
"A 	c #F1F2F0",
"B 	c #E3E3E0",
"C 	c #E2E2DF",
"D 	c #66A727",
"E 	c #87C14F",
"F 	c #E1F7CA",
"G 	c #D3F4B2",
"H 	c #93E444",
"I 	c #C9F1A2",
"J 	c #7BBB3E",
"K 	c #65A626",
"L 	c #D9DAD6",
"M 	c #D8DAD6",
"N 	c #D8D9D5",
"O 	c #EFEFED",
"P 	c #93948F",
"Q 	c #B1B3AF",
"R 	c #EFF0EE",
"S 	c #E5E6E3",
"T 	c #DCDDD9",
"U 	c #D7DAD2",
"V 	c #59A114",
"W 	c #A1D272",
"X 	c #E7F9D5",
"Y 	c #BAEE88",
"Z 	c #C4F098",
"` 	c #8CC852",
" .	c #59A113",
"..	c #D1D4CC",
"+.	c #D4D5D1",
"@.	c #D6D7D3",
"#.	c #D5D6D3",
"$.	c #EAEBE9",
"%.	c #A9ABA7",
"&.	c #C9CAC8",
"*.	c #EEEEEC",
"=.	c #DDDDDA",
"-.	c #F4F5F4",
";.	c #D5D7D2",
">.	c #C6CEBA",
",.	c #529D0B",
"'.	c #C1E49F",
").	c #A0D66C",
"!.	c #C1CAB4",
"~.	c #CFD0CB",
"{.	c #D5D7D3",
"].	c #DBDDD9",
"^.	c #CED0CB",
"/.	c #E3E4E2",
"(.	c #BFC1BD",
"_.	c #8E908A",
":.	c #DEDEDC",
"<.	c #E6E6E4",
"[.	c #D2D4CF",
"}.	c #D7D9D4",
"|.	c #F2F2F1",
"1.	c #E1E1DE",
"2.	c #B8C9A8",
"3.	c #549F0D",
"4.	c #A2D274",
"5.	c #539E0B",
"6.	c #B5C5A4",
"7.	c #E3E4E1",
"8.	c #DEDFDB",
"9.	c #CACCC7",
"0.	c #C6C9C3",
"a.	c #D3D4D1",
"b.	c #8B8E88",
"c.	c #898B86",
"d.	c #969792",
"e.	c #CBCDC8",
"f.	c #CBCDC7",
"g.	c #E6E7E5",
"h.	c #B7D49A",
"i.	c #B4D197",
"j.	c #EAEAE8",
"k.	c #DDDEDB",
"l.	c #CDCEC9",
"m.	c #C2C5BF",
"n.	c #C1C4BE",
"o.	c #939590",
"p.	c #D0D2CD",
"q.	c #E4E5E2",
"r.	c #C7C9C3",
"s.	c #DDDEDA",
"t.	c #C5C7C1",
"u.	c #C4C6C0",
"v.	c #C3C5BF",
"w.	c #C1C3BD",
"x.	c #C0C2BC",
"y.	c #BFC2BB",
"z.	c #BEC1BA",
"A.	c #BDC0B9",
"B.	c #BCBFB8",
"C.	c #BCBEB8",
"D.	c #BBBEB7",
"E.	c #DADCD9",
"F.	c #F5F6F5",
"G.	c #898A86",
"H.	c #888B85",
"I.	c #FFFFFF",
"J.	c #888A86",
"K.	c #6A706C",
"L.	c #858884",
"M.	c #9D9F9A",
"N.	c #868883",
"O.	c #60615F",
"P.	c #2E3436",
"Q.	c #3D4241",
"R.	c #2F3537",
"S.	c #353A3B",
"T.	c #3B403F",
"U.	c #3F4343",
"V.	c #454747",
"W.	c #4B4D4B",
"X.	c #747672",
"Y.	c #4F514E",
"Z.	c #787A76",
"`.	c #434645",
" +	c #757874",
".+	c #424545",
"++	c #747673",
"@+	c #1F2324",
"#+	c #3F4342",
"$+	c #424644",
"%+	c #454847",
"&+	c #464A48",
"*+	c #494C4A",
"=+	c #4C4F4C",
"-+	c #717470",
";+	c #70726E",
">+	c #6F726E",
",+	c #6E716D",
"'+	c #6E706C",
")+	c #6D6F6C",
"!+	c #6C6F6C",
"~+	c #282E30",
"{+	c #272D2F",
"                                                ",
"                                                ",
"                  . . . . . . .                 ",
"                  + @ # $ % % &                 ",
"                  + * % = - ; &                 ",
"                  + * % = - ; &                 ",
"        > , , , , + * % = - ; & ' , , , )       ",
"        ! ~ { ] ~ + * % = - ; & ^ / ( ( _       ",
"      : < [ . . . } | 1 = - 2 3 . . . 4 5 6     ",
"      7 8 9 0 a b c d e = - f % g a h i j k     ",
"      l m 9 n o p q r e = - s t u v w x 4 l     ",
"      y z A B C D E F G = H I J K L M N O P     ",
"      Q ( R S T U V W X Y Z `  ...+.@.#.$.%.    ",
"      &.*.=.-.B ;.>.,.'.$ ).,.!.~.{.].^./.(.    ",
"    _.:.<.[.}.|.( 1.2.3.4.5.6.N 7.8.9.0.w a.b.  ",
"    c.8 w d.e.f.;.g.|.h.. i.j.k.l.m.n.o.p.q.,   ",
"    , z ^.r.s.t.u.v.m.n.w.x.y.z.A.B.C.D.E.F.G.  ",
"    H.{ I.I.I.I.I.I.I.I.I.I.I.I.I.I.I.I.I.-.J.  ",
"    K.L., , , , , o.o.o., , o.M., o.M., , N.O.  ",
"      P.Q.P.R.S.T.U.V.W.X.Y.Z.`. +.+.+++Q.@+    ",
"      P.Q.Q.#+$+%+&+*+=+-+-+;+>+,+'+)+!+Q.P.    ",
"      ~+P.P.P.P.P.P.P.P.P.P.P.P.P.P.P.P.P.{+    ",
"                                                ",
"                                                "};
