/* XPM */
static char * save_xpm[] = {
"24 24 212 2",
"  	c None",
". 	c #6A6A6A",
"+ 	c #F0F0F0",
"@ 	c #EAEAEA",
"# 	c #EEF4F4",
"$ 	c #E9F0F0",
"% 	c #E5ECEC",
"& 	c #E1E8E8",
"* 	c #DDE4E4",
"= 	c #D8DFDF",
"- 	c #D5DBDB",
"; 	c #D1D8D8",
"> 	c #CCD3D3",
", 	c #CBD2D2",
"' 	c #CBCACA",
") 	c #A9A9A9",
"! 	c #A5A5A5",
"~ 	c #6E6E6E",
"{ 	c #636363",
"] 	c #A6A6A6",
"^ 	c #DE9696",
"/ 	c #E08989",
"( 	c #CCD4D4",
"_ 	c #ABABAB",
": 	c #A3A8A9",
"< 	c #667273",
"[ 	c #646464",
"} 	c #E2B2B2",
"| 	c #EAB0B0",
"1 	c #CBD1D1",
"2 	c #A6ADAE",
"3 	c #CE3534",
"4 	c #DB463F",
"5 	c #CE543A",
"6 	c #E9E9E9",
"7 	c #FEFEFE",
"8 	c #FFFFFF",
"9 	c #C7D0D3",
"0 	c #CC2E2F",
"a 	c #E14F46",
"b 	c #DF3D37",
"c 	c #D52E2D",
"d 	c #A7A7A7",
"e 	c #C1C1C1",
"f 	c #9B9B9B",
"g 	c #C4C4C4",
"h 	c #BEBEBE",
"i 	c #A8A8A8",
"j 	c #B0B0B0",
"k 	c #B8B8B8",
"l 	c #A1A1A1",
"m 	c #F1F1F1",
"n 	c #D1BC5B",
"o 	c #EFDC78",
"p 	c #D5583A",
"q 	c #E02B28",
"r 	c #CD2C2F",
"s 	c #A3A3A3",
"t 	c #D2BD5D",
"u 	c #F0E07B",
"v 	c #E9D657",
"w 	c #E3CF34",
"x 	c #CF2C2E",
"y 	c #656565",
"z 	c #A0A0A0",
"A 	c #A2A2A2",
"B 	c #FDFDFD",
"C 	c #D2BD5C",
"D 	c #EFDF7D",
"E 	c #E9D659",
"F 	c #E3CC36",
"G 	c #D5BD54",
"H 	c #6F6E6D",
"I 	c #9E9E9E",
"J 	c #F0E17F",
"K 	c #E9D75B",
"L 	c #E3CD37",
"M 	c #D3BC53",
"N 	c #8F8E8D",
"O 	c #666666",
"P 	c #9C9C9C",
"Q 	c #9D9D9D",
"R 	c #D1BC5C",
"S 	c #F1E180",
"T 	c #EAD75C",
"U 	c #E3CD39",
"V 	c #D2BA51",
"W 	c #9B9A99",
"X 	c #8A8A8A",
"Y 	c #999999",
"Z 	c #9A9A9A",
"` 	c #F0E181",
" .	c #EAD75E",
"..	c #E3CD3A",
"+.	c #CCB44B",
"@.	c #CACAC9",
"#.	c #979797",
"$.	c #868686",
"%.	c #B7B7B7",
"&.	c #C2C2C2",
"*.	c #BFC0C8",
"=.	c #D0BB5A",
"-.	c #F1E283",
";.	c #EAD85F",
">.	c #E4CE3B",
",.	c #D2BB52",
"'.	c #C1C1BF",
").	c #959595",
"!.	c #838383",
"~.	c #676767",
"{.	c #989898",
"].	c #9F9F9F",
"^.	c #9E9FA3",
"/.	c #D0BB5B",
"(.	c #F1E284",
"_.	c #EAD861",
":.	c #E4CE3D",
"<.	c #D4BC53",
"[.	c #949492",
"}.	c #939393",
"|.	c #929292",
"1.	c #808080",
"2.	c #B2B2B2",
"3.	c #D2BC5C",
"4.	c #F2E386",
"5.	c #EBD962",
"6.	c #E4CF3F",
"7.	c #CEB74D",
"8.	c #919191",
"9.	c #909090",
"0.	c #8F8F8F",
"a.	c #7D7D7D",
"b.	c #686868",
"c.	c #B1B1B1",
"d.	c #FBFBFB",
"e.	c #FCFCFC",
"f.	c #FDFFFF",
"g.	c #D1BB5A",
"h.	c #F2E388",
"i.	c #EBD964",
"j.	c #E5D040",
"k.	c #D1B950",
"l.	c #FCFCFB",
"m.	c #8B8B8B",
"n.	c #8E8E8E",
"o.	c #8D8D8D",
"p.	c #797979",
"q.	c #6D6D6D",
"r.	c #F7F7F7",
"s.	c #F6F6F6",
"t.	c #F8F9FC",
"u.	c #F2E489",
"v.	c #EBD965",
"w.	c #E5CF42",
"x.	c #AAA9A8",
"y.	c #888888",
"z.	c #8C8C8C",
"A.	c #777777",
"B.	c #696969",
"C.	c #F2F2F2",
"D.	c #F4F6FD",
"E.	c #F3E48B",
"F.	c #ECDA67",
"G.	c #E5D043",
"H.	c #D4BD54",
"I.	c #8C8C8A",
"J.	c #858585",
"K.	c #898989",
"L.	c #757575",
"M.	c #EDEDED",
"N.	c #F0F1F9",
"O.	c #F2E48C",
"P.	c #ECDA69",
"Q.	c #E6D144",
"R.	c #8A8988",
"S.	c #848484",
"T.	c #737373",
"U.	c #E9E8E7",
"V.	c #F3E58E",
"W.	c #ECDB69",
"X.	c #E6D147",
"Y.	c #D2BB51",
"Z.	c #8A8A88",
"`.	c #E8E8E8",
" +	c #727272",
".+	c #DED6B8",
"++	c #EFEFC6",
"@+	c #EFEFC8",
"#+	c #E6D24A",
"$+	c #CEB64D",
"%+	c #C0C0BE",
"&+	c #E6E6E6",
"*+	c #717171",
"=+	c #6C6C6C",
"-+	c #1D1906",
";+	c #F5F5C9",
">+	c #EFEFC4",
",+	c #CEB64B",
"'+	c #E3E3E2",
")+	c #BABABA",
"!+	c #BBBBBB",
"~+	c #D5D5D5",
"{+	c #5D5D5D",
"]+	c #616161",
"^+	c #5E5E5E",
"/+	c #5C5C5C",
"(+	c #595959",
"_+	c #535353",
":+	c #000000",
"<+	c #D2BC57",
"[+	c #A3A4A9",
"}+	c #A5A5A4",
"                                                ",
"                                                ",
"                                                ",
"    . + @ # $ % & * = - ; > , , , , , ' ) ! ~   ",
"    { ] ) ^ / / / / / / / / / / / / / ( _ : <   ",
"    [ ] ) } | | | | | | | | | | | | | 1 2 3 4 5 ",
"    [ ] ) 6 7 8 8 7 8 8 7 8 8 7 8 8 7 9 0 a b c ",
"    [ ! d 6 8 ] e f g f h i j k l m 8 n o p q r ",
"    [ s ! 6 8 7 7 7 7 7 7 7 7 7 7 8 t u v w x   ",
"    y z A 6 7 8 8 B 8 B 8 8 8 8 8 C D E F G H   ",
"    y I z 6 7 8 8 8 8 8 8 8 8 8 n J K L M N ~   ",
"    O P Q 6 7 8 8 8 8 8 8 8 8 R S T U V W X ~   ",
"    O Y Z 6 8 8 8 8 8 8 8 8 t `  ...+.@.#.$.~   ",
"    O #.Z %.&.&.&.&.&.&.*.=.-.;.>.,.'.P ).!.~   ",
"    ~.).{.z l z z ].].^./.(._.:.<.[.}.}.|.1.~   ",
"    ~.}.2.7 8 8 8 8 8 3.4.5.6.7.N 8.8.9.0.a.~   ",
"    b.8.c.d.e.d.d.f.g.h.i.j.k.l.m.n.n.n.o.p.q.  ",
"    b.0.c.r.s.s.t.C u.v.w.<.x.r.y.z.z.m.m.A.q.  ",
"    B.z.c.m C.D.C E.F.G.H.I.d C.J.X K.K.y.L.q.  ",
"    B.X c.M.N.g.O.P.Q.G R.y.d M.S.y.K.K.y.T.q.  ",
"    . y.c.U.t V.W.X.Y.Z.K.y.d `.S.y.K.y.y. +q.  ",
"    . y.2..+++@+#+$+%+K.y.K.d &+S.K.y.K.K.*+q.  ",
"    =+X 2.-+;+>+,+'+&+)+)+!+~+&+{+]+^+/+(+_+~   ",
"          :+<+[+}+! ! ! ! ! !                   "};
